<svg xmlns="http://www.w3.org/2000/svg" xmlns:xlink="http://www.w3.org/1999/xlink" width="45.688" height="40.61" viewBox="0 0 45.688 40.61">
  <defs>
    <linearGradient id="linear-gradient" x1="0.5" x2="0.5" y2="1" gradientUnits="objectBoundingBox">
      <stop offset="0" stop-color="#02b3bd"/>
      <stop offset="1" stop-color="#00868e"/>
    </linearGradient>
  </defs>
  <path id="health_beauty" d="M21.835,19.848a1.382,1.382,0,0,0,2.023,0l8.637-9.058a6.575,6.575,0,0,0-.444-9.422,6.029,6.029,0,0,0-8.32.611l-.888.928-.88-.92a6.022,6.022,0,0,0-8.32-.619,6.581,6.581,0,0,0-.444,9.422Zm23,6.155a2.625,2.625,0,0,0-3.379,0l-7.329,5.861a5.049,5.049,0,0,1-3.173,1.11H21.573a1.269,1.269,0,0,1,0-2.538h6.21a2.641,2.641,0,0,0,2.641-2.11,2.541,2.541,0,0,0-2.506-2.966H15.228a9.335,9.335,0,0,0-5.877,2.086l-3.688,2.99H1.269A1.273,1.273,0,0,0,0,31.706V39.32a1.273,1.273,0,0,0,1.269,1.269h28.3a5.082,5.082,0,0,0,3.173-1.11l11.992-9.6A2.537,2.537,0,0,0,44.836,26Z" transform="translate(0 0.021)" fill="url(#linear-gradient)"/>
</svg>
