<svg xmlns="http://www.w3.org/2000/svg" xmlns:xlink="http://www.w3.org/1999/xlink" width="40.565" height="40.564" viewBox="0 0 40.565 40.564">
  <defs>
    <linearGradient id="linear-gradient" x1="0.5" x2="0.5" y2="1" gradientUnits="objectBoundingBox">
      <stop offset="0" stop-color="#02b3bd"/>
      <stop offset="1" stop-color="#00868e"/>
    </linearGradient>
  </defs>
  <path id="stationary" d="M39.078,3.917a5.079,5.079,0,0,1,0,7.182L34.6,15.572l-9.042-9.04,4.473-4.473a5.084,5.084,0,0,1,7.186,0ZM3.561,28.54,23.771,8.326l9.042,9.039L12.6,37.574a4.5,4.5,0,0,1-1.919,1.134L2.426,41.064a1.8,1.8,0,0,1-1.869-.555,1.745,1.745,0,0,1-.484-1.8l2.358-8.249A4.4,4.4,0,0,1,3.561,28.54ZM19.781,8.727,8.2,20.307l-6.932-6.94a3.8,3.8,0,0,1,0-5.381L7.461,1.8a3.8,3.8,0,0,1,5.381,0l1.57,1.567c-.024.023-.056.048-.079.074L9.256,8.513a1.267,1.267,0,1,0,1.792,1.792L16.125,5.23c.024-.025-.016-.052.071-.08Zm16.2,16.212a.644.644,0,0,0-.079.071L30.83,30.086a1.267,1.267,0,1,0,1.792,1.792L37.7,26.8c.024-.1-.016-.056.071-.079l1.57,1.57a3.806,3.806,0,0,1,0,5.377l-6.194,6.194a3.806,3.806,0,0,1-5.377,0l-6.94-6.932,11.58-11.58Z" transform="translate(0 -0.571)" fill="url(#linear-gradient)"/>
</svg>
