<svg xmlns="http://www.w3.org/2000/svg" xmlns:xlink="http://www.w3.org/1999/xlink" width="35.548" height="35.548" viewBox="0 0 35.548 35.548">
  <defs>
    <linearGradient id="linear-gradient" x1="0.5" x2="0.5" y2="1" gradientUnits="objectBoundingBox">
      <stop offset="0" stop-color="#02b3bd"/>
      <stop offset="1" stop-color="#00868e"/>
    </linearGradient>
  </defs>
  <path id="sports" d="M30.12,32.55A17.815,17.815,0,0,1,20.4,36.6V20.4h3.239a17.815,17.815,0,0,0,4.1,9.814C28.177,30.671,30.12,32.55,30.12,32.55ZM9.763,7.35a17.717,17.717,0,0,1,4.162,9.814h3.239V1.05A17.815,17.815,0,0,0,7.447,4.985S9.407,6.913,9.763,7.35ZM10.686,20.4H1.05a17.588,17.588,0,0,0,4.114,9.863s1.943-1.911,2.284-2.332A14.576,14.576,0,0,0,10.686,20.4Zm-.842,9.814c-.453.437-2.4,2.332-2.4,2.332A17.815,17.815,0,0,0,17.164,36.6V20.4H13.925a17.718,17.718,0,0,1-4.162,9.814Zm.842-13.053A14.4,14.4,0,0,0,7.447,9.65c-.34-.453-2.235-2.4-2.235-2.4A17.572,17.572,0,0,0,1.05,17.164ZM27.8,7.35c.372-.437,2.316-2.332,2.316-2.332A17.815,17.815,0,0,0,20.4,1.05V17.164h3.239A17.717,17.717,0,0,1,27.8,7.35ZM26.962,20.4a14.4,14.4,0,0,0,3.158,7.515c.34.453,2.284,2.348,2.284,2.348A17.588,17.588,0,0,0,36.6,20.4Zm0-3.239H36.6A17.588,17.588,0,0,0,32.485,7.3S30.46,9.212,30.12,9.633A14.576,14.576,0,0,0,26.962,17.164Z" transform="translate(-1.05 -1.05)" fill="url(#linear-gradient)"/>
</svg>
