<svg xmlns="http://www.w3.org/2000/svg" xmlns:xlink="http://www.w3.org/1999/xlink" width="156.445" height="139.21" viewBox="0 0 156.445 139.21">
  <defs>
    <clipPath id="clip-path">
      <circle id="Ellipse_497" data-name="Ellipse 497" cx="19.111" cy="19.111" r="19.111" transform="translate(0 27.027) rotate(-45)" fill="#fff"/>
    </clipPath>
    <clipPath id="clip-path-2">
      <circle id="Ellipse_500" data-name="Ellipse 500" cx="19.111" cy="19.111" r="19.111" fill="#fff"/>
    </clipPath>
  </defs>
  <g id="about_us" transform="translate(-6644.11 -4896.5)">
    <g id="freepik--Shadow--inject-88" transform="translate(6644.11 5026.576)">
      <ellipse id="freepik--path--inject-88" cx="78.223" cy="4.567" rx="78.223" ry="4.567" transform="translate(0 0)" fill="#01a2ab"/>
    </g>
    <g id="freepik--Page--inject-88" transform="translate(6653.074 4896.5)">
      <rect id="Rectangle_5670" data-name="Rectangle 5670" width="3.562" height="0.403" transform="translate(41.958 0)" fill="#00b4bd"/>
      <rect id="Rectangle_5671" data-name="Rectangle 5671" width="8.743" height="0.403" transform="translate(28.983 0)" fill="#00b4bd"/>
      <path id="Path_65891" data-name="Path 65891" d="M83.171,86H212.005a4.841,4.841,0,0,1,4.841,4.841V202.077H78.33V90.841A4.841,4.841,0,0,1,83.171,86Z" transform="translate(-78.33 -84.588)" fill="#00b4bd"/>
      <rect id="Rectangle_5672" data-name="Rectangle 5672" width="138.512" height="106.935" transform="translate(0 8.674)" fill="#fff" opacity="0.8"/>
      <rect id="Rectangle_5673" data-name="Rectangle 5673" width="138.512" height="23.508" transform="translate(0 8.674)" fill="#00b4bd" opacity="0.4"/>
      <rect id="Rectangle_5674" data-name="Rectangle 5674" width="5.781" height="5.781" transform="translate(129.875 10.921)" fill="#00b4bd" opacity="0.4"/>
      <rect id="Rectangle_5675" data-name="Rectangle 5675" width="5.781" height="5.781" transform="translate(121.298 10.921)" fill="#00b4bd" opacity="0.4"/>
      <rect id="Rectangle_5676" data-name="Rectangle 5676" width="5.781" height="5.781" transform="translate(112.721 10.921)" fill="#00b4bd" opacity="0.4"/>
      <rect id="Rectangle_5677" data-name="Rectangle 5677" width="5.781" height="0.581" transform="translate(20.426 111.752)" fill="#00b4bd" opacity="0.4"/>
      <rect id="Rectangle_5678" data-name="Rectangle 5678" width="5.781" height="0.581" transform="translate(11.849 111.752)" fill="#00b4bd" opacity="0.4"/>
      <rect id="Rectangle_5679" data-name="Rectangle 5679" width="5.781" height="0.581" transform="translate(3.272 111.752)" fill="#00b4bd" opacity="0.4"/>
      <path id="Path_65892" data-name="Path 65892" d="M210.375,130.99h-1.763l-.246.831H206.78l1.888-5.031h1.7l1.888,5.031h-1.614Zm-.323-1.085-.553-1.82-.553,1.811Z" transform="translate(-154.958 -108.922)" fill="#fff"/>
      <path id="Path_65893" data-name="Path 65893" d="M221.36,126.79h1.412v1.743a1.343,1.343,0,0,1,.472-.327,1.549,1.549,0,0,1,.589-.113,1.428,1.428,0,0,1,1.1.48,1.977,1.977,0,0,1,.436,1.376,2.59,2.59,0,0,1-.2,1.049,1.521,1.521,0,0,1-.553.682,1.412,1.412,0,0,1-.779.222,1.452,1.452,0,0,1-.674-.157,1.706,1.706,0,0,1-.5-.464v.541H221.36Zm1.4,3.2a1.069,1.069,0,0,0,.178.682.565.565,0,0,0,.448.21.516.516,0,0,0,.4-.21,1.113,1.113,0,0,0,.169-.7,1.009,1.009,0,0,0-.165-.633.512.512,0,0,0-.4-.2.573.573,0,0,0-.464.21.964.964,0,0,0-.165.641Z" transform="translate(-163.656 -108.922)" fill="#fff"/>
      <path id="Path_65894" data-name="Path 65894" d="M232.529,131.917a1.832,1.832,0,0,1,.565-1.376,2.106,2.106,0,0,1,1.521-.549,2.082,2.082,0,0,1,1.65.637,1.977,1.977,0,0,1-.1,2.634,2.13,2.13,0,0,1-1.545.537,2.183,2.183,0,0,1-1.42-.444A1.791,1.791,0,0,1,232.529,131.917Zm1.4,0a1.118,1.118,0,0,0,.2.722.654.654,0,0,0,.992,0,1.138,1.138,0,0,0,.194-.738,1.077,1.077,0,0,0-.173-.7.617.617,0,0,0-.484-.23.625.625,0,0,0-.5.234,1.086,1.086,0,0,0-.222.706Z" transform="translate(-170.319 -110.829)" fill="#fff"/>
      <path id="Path_65895" data-name="Path 65895" d="M248.386,133.873h-1.3v-.589a1.884,1.884,0,0,1-.589.516,1.541,1.541,0,0,1-.73.153,1.186,1.186,0,0,1-.9-.343,1.5,1.5,0,0,1-.327-1.061v-2.32h1.4v2.017a.738.738,0,0,0,.125.488.452.452,0,0,0,.359.145.5.5,0,0,0,.4-.194,1.081,1.081,0,0,0,.161-.69v-1.751h1.4Z" transform="translate(-177.477 -110.974)" fill="#fff"/>
      <path id="Path_65896" data-name="Path 65896" d="M257.536,126.79v1.388h.767V129.2h-.767v1.307a.673.673,0,0,0,.044.311.25.25,0,0,0,.238.113,1.477,1.477,0,0,0,.432-.089l.1.964a4.493,4.493,0,0,1-.968.113,1.67,1.67,0,0,1-.767-.133.807.807,0,0,1-.367-.4,2.359,2.359,0,0,1-.117-.884v-1.283h-.516v-1.021h.516v-.67Z" transform="translate(-184.094 -108.922)" fill="#fff"/>
      <path id="Path_65897" data-name="Path 65897" d="M273.232,126.766h1.549v3a2.529,2.529,0,0,1-.137.843,1.823,1.823,0,0,1-.436.69,1.783,1.783,0,0,1-.621.4,3.227,3.227,0,0,1-1.089.165,6.455,6.455,0,0,1-.807-.052,2.066,2.066,0,0,1-.722-.2,1.751,1.751,0,0,1-.537-.436,1.59,1.59,0,0,1-.331-.577,2.992,2.992,0,0,1-.141-.851v-3h1.549v3.07a.884.884,0,0,0,.226.641.855.855,0,0,0,.633.23.835.835,0,0,0,.629-.226.871.871,0,0,0,.23-.645Z" transform="translate(-192.649 -108.898)" fill="#fff"/>
      <path id="Path_65898" data-name="Path 65898" d="M283.62,132.714l1.388-.129a.67.67,0,0,0,.238.351.71.71,0,0,0,.4.109.682.682,0,0,0,.436-.121.266.266,0,0,0,.121-.222.258.258,0,0,0-.157-.234,2.973,2.973,0,0,0-.6-.145,6.141,6.141,0,0,1-1.009-.234,1.073,1.073,0,0,1-.476-.363.936.936,0,0,1-.2-.589.968.968,0,0,1,.21-.617,1.3,1.3,0,0,1,.577-.4,3.094,3.094,0,0,1,.984-.129,3.491,3.491,0,0,1,.964.1,1.259,1.259,0,0,1,.516.311,1.614,1.614,0,0,1,.347.565l-1.327.129a.444.444,0,0,0-.169-.258.7.7,0,0,0-.4-.109.557.557,0,0,0-.343.085.254.254,0,0,0-.109.206.218.218,0,0,0,.137.2,2.3,2.3,0,0,0,.6.121,3.937,3.937,0,0,1,1.037.222,1.146,1.146,0,0,1,.52.4,1,1,0,0,1,.177.573,1.138,1.138,0,0,1-.19.613,1.307,1.307,0,0,1-.6.476,2.909,2.909,0,0,1-1.118.173,2.651,2.651,0,0,1-1.42-.282A1.283,1.283,0,0,1,283.62,132.714Z" transform="translate(-200.798 -110.828)" fill="#fff"/>
      <circle id="Ellipse_495" data-name="Ellipse 495" cx="20.172" cy="20.172" r="20.172" transform="translate(8.412 37.366)" fill="#00b4bd"/>
      <circle id="Ellipse_496" data-name="Ellipse 496" cx="19.111" cy="19.111" r="19.111" transform="translate(1.557 57.538) rotate(-45)" fill="#fff"/>
      <g id="Group_29826" data-name="Group 29826" transform="translate(1.557 30.511)" clip-path="url(#clip-path)">
        <path id="Path_65899" data-name="Path 65899" d="M151.6,221.206l1.614-3.357s8.424,2.663,9.683,3.28c-.032-2.106,1.041-6.052,1.158-8.214.319-.3,1.089-1.065,1.489-1.037,1.21,2.824.948,12.507-1.432,12.68C160.306,224.8,151.6,221.206,151.6,221.206Z" transform="translate(-123.597 -190.193)" fill="#b55b52"/>
        <path id="Path_65900" data-name="Path 65900" d="M148.6,228.046c.972,2.279,8.956,4.309,8.956,4.309l1.614-4.906a19.52,19.52,0,0,0-6.2-3.054C149.733,223.625,147.522,225.545,148.6,228.046Z" transform="translate(-121.641 -197.557)" fill="#00b4bd"/>
        <path id="Path_65901" data-name="Path 65901" d="M149.35,233.81c.948,1.432,4.474,2.731,6.77,3.453C154.591,234.294,152.529,232.657,149.35,233.81Z" transform="translate(-122.255 -203.055)" opacity="0.2"/>
        <path id="Path_65902" data-name="Path 65902" d="M180.547,211.107l-1.287-1.65,2.38-1.327a4.164,4.164,0,0,1,.69,2.392Z" transform="translate(-140.098 -187.957)" fill="#b55b52"/>
        <path id="Path_65903" data-name="Path 65903" d="M178.39,205.205l2.32-.375.412,1.331-2.38,1.327Z" transform="translate(-139.579 -185.988)" fill="#b55b52"/>
        <path id="Path_65904" data-name="Path 65904" d="M140.54,223.867s3.252,7.827.7,22.411H128.534c-.149-2.13.936-12.507-1.364-22.544a35.47,35.47,0,0,1,4.627-.589,51.268,51.268,0,0,1,5.894,0A6.62,6.62,0,0,1,140.54,223.867Z" transform="translate(-109.023 -196.863)" fill="#00b4bd"/>
        <path id="Path_65905" data-name="Path 65905" d="M130.556,228.618c.274,1.654-.149,5.6-1.614,10.167a66.806,66.806,0,0,0-1.243-11.643h0C128.628,227.029,130.3,227.061,130.556,228.618Z" transform="translate(-109.339 -199.275)" opacity="0.2"/>
        <path id="Path_65906" data-name="Path 65906" d="M139.273,209.61c.4,1.9.662,4.248-.633,5.511,0,0,.807,1.924,4.333,1.924,3.227,0,1.561-1.924,1.561-1.924-2.126-.5-2.082-3.119-1.747-4.6Z" transform="translate(-115.866 -188.84)" fill="#b55b52"/>
        <path id="Path_65907" data-name="Path 65907" d="M148.059,227.563l.767.847a.23.23,0,0,1,.048.218l-.246.746a.214.214,0,0,1-.194.145l-.807.04a.218.218,0,0,1-.2-.1l-.5-.722a.226.226,0,0,1,0-.27l.807-.9A.226.226,0,0,1,148.059,227.563Z" transform="translate(-120.787 -199.51)" fill="#fff"/>
        <path id="Path_65908" data-name="Path 65908" d="M142.08,223.722a4.462,4.462,0,0,0-.629,2.162s-4.438-1.557-4.3-3.841c0,0,.617-.371,1.009-.674C138.154,221.37,138.34,222.81,142.08,223.722Z" transform="translate(-114.973 -195.855)" fill="#263238"/>
        <path id="Path_65909" data-name="Path 65909" d="M149.38,224.313a6.318,6.318,0,0,1,.908,2.017,3.394,3.394,0,0,0,1.311-3.611,7.931,7.931,0,0,0-1.138-.359A1.71,1.71,0,0,1,149.38,224.313Z" transform="translate(-122.273 -196.446)" fill="#263238"/>
        <path id="Path_65910" data-name="Path 65910" d="M149.53,232.214s1.263,9.279,1.291,10.893a15.662,15.662,0,0,1-.714,4.5,11.854,11.854,0,0,1-1.017-4.571c-.149-2.929.032-9.182-.032-10.828Z" transform="translate(-122.064 -202.322)" fill="#fff"/>
        <path id="Path_65911" data-name="Path 65911" d="M143.73,210.53a5.709,5.709,0,0,0,.089,3.115,3.458,3.458,0,0,1-.948-.29,5.113,5.113,0,0,1-2.461-2.76c-.056-.339-.121-.666-.19-.984Z" transform="translate(-116.808 -188.84)" opacity="0.2"/>
        <path id="Path_65912" data-name="Path 65912" d="M153.5,206.092a2.364,2.364,0,0,1-1.412,1.19c-.807.238-1.247-.5-1.045-1.287.186-.71.807-1.686,1.654-1.586a1.126,1.126,0,0,1,.8,1.682Z" transform="translate(-123.239 -185.733)" fill="#b55b52"/>
        <path id="Path_65913" data-name="Path 65913" d="M153.5,206.092a2.364,2.364,0,0,1-1.412,1.19c-.807.238-1.247-.5-1.045-1.287.186-.71.807-1.686,1.654-1.586a1.126,1.126,0,0,1,.8,1.682Z" transform="translate(-123.239 -185.733)" opacity="0.2"/>
        <path id="Path_65914" data-name="Path 65914" d="M149.088,197.37c.807.738,2.279-3.312.629-4.438s-2.227.4-2.2,1.335A4.179,4.179,0,0,0,149.088,197.37Z" transform="translate(-121.162 -178.653)" fill="#263238"/>
        <path id="Path_65915" data-name="Path 65915" d="M137.673,196.875c.379,2.566.472,4.087,1.872,5.325a3.342,3.342,0,0,0,5.523-2.15c.347-2.356-.331-6.16-2.909-7.02a3.433,3.433,0,0,0-4.486,3.845Z" transform="translate(-115.258 -178.839)" fill="#b55b52"/>
        <path id="Path_65916" data-name="Path 65916" d="M134.269,201.3c.444.286,1.053,1.061,1.969-.311,0-.355-.9-.952-.968-1.791-.081-.976-.294-2.017-1.085-2.36-1.8-.807-2.134.742-1.957,1.67A4.156,4.156,0,0,0,134.269,201.3Z" transform="translate(-112.015 -181.085)" fill="#263238"/>
        <path id="Path_65917" data-name="Path 65917" d="M135.036,190.253c4.256-.662,6.77-.807,8.049-2.4s-.686-3.566-2.824-3.792c-.153.831-2.32,3.018-5.648,3.966a1,1,0,0,0-.286,1.8C134.734,190.087,135.036,190.253,135.036,190.253Z" transform="translate(-113.025 -173.597)" fill="#263238"/>
        <path id="Path_65918" data-name="Path 65918" d="M135.143,207.4a2.481,2.481,0,0,0,1.614.98c.843.129,1.146-.658.807-1.408-.3-.678-1.105-1.557-1.9-1.343A1.1,1.1,0,0,0,135.143,207.4Z" transform="translate(-113.627 -186.447)" fill="#b55b52"/>
        <path id="Path_65919" data-name="Path 65919" d="M147.457,203.4c0,.21.145.375.278.363s.23-.186.214-.4-.141-.371-.278-.363S147.441,203.177,147.457,203.4Z" transform="translate(-121.125 -184.896)" fill="#263238"/>
        <path id="Path_65920" data-name="Path 65920" d="M153.257,202.972c.02.21.145.371.278.363s.23-.186.214-.4-.145-.375-.278-.363S153.241,202.763,153.257,202.972Z" transform="translate(-124.585 -184.639)" fill="#263238"/>
        <path id="Path_65921" data-name="Path 65921" d="M151.44,204a7.763,7.763,0,0,0,1.146,1.731,1.17,1.17,0,0,1-.972.254Z" transform="translate(-123.502 -185.493)" fill="#a02724"/>
        <path id="Path_65922" data-name="Path 65922" d="M148.263,209.366a.057.057,0,0,0,.052-.065.06.06,0,0,0-.065-.056,1.666,1.666,0,0,1-1.392-.561.061.061,0,1,0-.1.073A1.759,1.759,0,0,0,148.263,209.366Z" transform="translate(-120.704 -188.273)" fill="#263238"/>
        <path id="Path_65923" data-name="Path 65923" d="M145.355,201.047a.113.113,0,0,0,.093-.052.948.948,0,0,1,.742-.468.117.117,0,0,0,.121-.121.125.125,0,0,0-.125-.125,1.174,1.174,0,0,0-.944.577.121.121,0,0,0,.04.169.1.1,0,0,0,.073.02Z" transform="translate(-119.793 -183.274)" fill="#263238"/>
        <path id="Path_65924" data-name="Path 65924" d="M154.2,200.177l.048-.02a.121.121,0,0,0,.032-.173,1.234,1.234,0,0,0-.968-.573.121.121,0,0,0-.121.125.125.125,0,0,0,.125.121h0a.98.98,0,0,1,.763.464.137.137,0,0,0,.121.056Z" transform="translate(-124.546 -182.755)" fill="#263238"/>
        <path id="Path_65925" data-name="Path 65925" d="M117.2,233.26l3.268,1.92s-4.123,8.069-3.675,9.327c.609,1.694,1.533,5.418,2.614,7.262a3.664,3.664,0,0,1-1.065,1.565c-2.6-1.743-5.442-7.451-5.434-9.081C112.946,240.554,117.2,233.26,117.2,233.26Z" transform="translate(-100.516 -202.948)" fill="#b55b52"/>
        <path id="Path_65926" data-name="Path 65926" d="M119.707,224.659c-2.445.355-5.047,8.876-5.047,8.876l5.785,1.844a46.718,46.718,0,0,0,2.675-6C124.193,226.233,122.329,224.276,119.707,224.659Z" transform="translate(-101.56 -197.789)" fill="#00b4bd"/>
        <path id="Path_65927" data-name="Path 65927" d="M125.575,278.078l2.465-.178-1.243,2.719s-2.162.085-2.558-1.565Z" transform="translate(-107.275 -229.579)" fill="#b55b52"/>
        <path id="Path_65928" data-name="Path 65928" d="M133.856,279.151l-1.251,2.409-2.025-.94,1.243-2.719Z" transform="translate(-111.057 -229.579)" fill="#b55b52"/>
      </g>
      <circle id="Ellipse_498" data-name="Ellipse 498" cx="20.172" cy="20.172" r="20.172" transform="translate(89.761 71.384)" fill="#00b4bd"/>
      <circle id="Ellipse_499" data-name="Ellipse 499" cx="19.111" cy="19.111" r="19.111" transform="translate(90.822 72.445)" fill="#fff"/>
      <g id="Group_29827" data-name="Group 29827" transform="translate(90.822 72.445)" clip-path="url(#clip-path-2)">
        <path id="Path_65929" data-name="Path 65929" d="M342.469,272.766c-2.868-.258-4.656,4.155-4.059,10.893,3.631,2.062,7.79,0,11.119,1.658C352.607,280.609,351.788,269.99,342.469,272.766Z" transform="translate(-324.237 -268.179)" fill="#263238"/>
        <path id="Path_65930" data-name="Path 65930" d="M325.871,317.169a21.465,21.465,0,0,1-1.731,4.414,9.878,9.878,0,0,1-1.477,2.118,4.845,4.845,0,0,1-.553.508,2.5,2.5,0,0,1-1.077.545,1.9,1.9,0,0,1-.924-.04,1.948,1.948,0,0,1-.722-.4,2.7,2.7,0,0,1-.629-.843,5.961,5.961,0,0,1-.44-1.343,11.008,11.008,0,0,1-.194-1.21c-.089-.807-.129-1.557-.141-2.324a37.9,37.9,0,0,1,.206-4.539l1.485.028c.129,1.452.278,2.921.468,4.349.1.714.214,1.424.359,2.1.073.335.157.666.246.968a3.337,3.337,0,0,0,.311.75c.044.073.1.113.032.036a.682.682,0,0,0-.238-.133.807.807,0,0,0-.375-.024c-.182.032-.194.085-.121,0a2.919,2.919,0,0,0,.238-.274,8.638,8.638,0,0,0,.932-1.614,19.656,19.656,0,0,0,.783-1.908c.242-.65.468-1.348.666-1.977Z" transform="translate(-312.118 -293.079)" fill="#ffb573"/>
        <path id="Path_65931" data-name="Path 65931" d="M329.558,311.858c-1.21.311-2.058,5.289-2.058,5.289l4.627,3.147s1.9-5.9.972-7.234S331.333,311.394,329.558,311.858Z" transform="translate(-317.797 -291.654)" fill="#263238"/>
        <path id="Path_65932" data-name="Path 65932" d="M331.492,314.91l-.932,5.019,1.876,1.271Z" transform="translate(-319.623 -293.592)" opacity="0.2"/>
        <path id="Path_65933" data-name="Path 65933" d="M319.569,310.574l.613-3.094-2.461.714s-.242,2.142.75,2.848Z" transform="translate(-311.948 -289.16)" fill="#ffb573"/>
        <path id="Path_65934" data-name="Path 65934" d="M319.975,304.11l-2.033.843-.182,1.23,2.461-.714Z" transform="translate(-311.987 -287.149)" fill="#ffb573"/>
        <path id="Path_65935" data-name="Path 65935" d="M332.083,310.9s-1.4.5,1.4,17.723h11.922c-.2-4.841-.206-7.847,2.114-17.808a35.5,35.5,0,0,0-5.063-.666,37.855,37.855,0,0,0-5.414,0C334.722,310.361,332.083,310.9,332.083,310.9Z" transform="translate(-320.323 -290.693)" fill="#263238"/>
        <path id="Path_65936" data-name="Path 65936" d="M365.526,321.72c-1.081.266-2.082,1.448-1.961,3.631a5.245,5.245,0,0,0,1,2.735c.19-1.67.508-3.611,1.017-6.088Z" transform="translate(-339.306 -297.655)" opacity="0.2"/>
        <path id="Path_65937" data-name="Path 65937" d="M346.46,313.96s1.953,1.614,1.953,3.32c1.614-1.19,3.812-4.438,4.034-6.5a.621.621,0,0,0-.589-.678,3.554,3.554,0,0,1-.436-.056.4.4,0,0,0-.347.089Z" transform="translate(-329.108 -290.686)" fill="#fafafa"/>
        <path id="Path_65938" data-name="Path 65938" d="M342.089,313.9a4.938,4.938,0,0,0-1.957,3.32c-1.646-1.21-.964-4.934-.048-6.693a.944.944,0,0,1,.734-.5c.238-.028.424-.061.545-.085a.161.161,0,0,1,.194.137Z" transform="translate(-324.737 -290.628)" fill="#fafafa"/>
        <path id="Path_65939" data-name="Path 65939" d="M348.844,295.18c-.339,1.743-.682,4.934.537,6.1A15.294,15.294,0,0,1,344.6,305.1c-2.421-1.932-.629-3.821-.629-3.821,1.945-.464,1.892-1.9,1.553-3.26Z" transform="translate(-327.24 -281.822)" fill="#ffb573"/>
        <path id="Path_65940" data-name="Path 65940" d="M350.725,298.05l-1.965,1.678a5.767,5.767,0,0,1,.165.96c.742-.1,1.908-.738,2.07-1.545A2.287,2.287,0,0,0,350.725,298.05Z" transform="translate(-330.48 -283.534)" opacity="0.2"/>
        <path id="Path_65941" data-name="Path 65941" d="M351.217,280.672c-.807,2.8-1.085,4-2.844,5.144a3.724,3.724,0,0,1-5.955-2.876c-.044-2.687,1.283-6.814,4.313-7.326a3.974,3.974,0,0,1,4.486,5.059Z" transform="translate(-326.696 -270.114)" fill="#ffb573"/>
        <path id="Path_65942" data-name="Path 65942" d="M358.9,281.6c.492,2.8.682,3.877,1.67,4.6s1.908-2.594,1.178-3.869S358.9,281.6,358.9,281.6Z" transform="translate(-336.529 -273.651)" fill="#263238"/>
        <path id="Path_65943" data-name="Path 65943" d="M347.151,274.119c-.593.7.625,2.171,1.807,2.651a2.017,2.017,0,0,1-.157-.484,7.935,7.935,0,0,0,2.824,1.21,1.109,1.109,0,0,1-.222-.5c0-.137,2.913,1.791,3.336.4s-1.021-3.2-3.228-3.784C349.632,273.147,347.881,273.252,347.151,274.119Z" transform="translate(-329.428 -268.794)" fill="#263238"/>
        <path id="Path_65944" data-name="Path 65944" d="M351.76,286.9c-.048.23-.214.4-.367.355s-.23-.246-.178-.48.214-.4.367-.355S351.813,286.648,351.76,286.9Z" transform="translate(-331.935 -276.59)" fill="#263238"/>
        <path id="Path_65945" data-name="Path 65945" d="M345.286,285.458c-.052.23-.218.4-.367.355s-.234-.246-.182-.48.214-.4.367-.355S345.334,285.224,345.286,285.458Z" transform="translate(-328.071 -275.731)" fill="#263238"/>
        <path id="Path_65946" data-name="Path 65946" d="M345.06,284.636l-.52-.286S344.726,284.846,345.06,284.636Z" transform="translate(-327.963 -275.361)" fill="#263238"/>
        <path id="Path_65947" data-name="Path 65947" d="M346.18,287.65a6.332,6.332,0,0,1-1.15,1.291,1.013,1.013,0,0,0,.807.339Z" transform="translate(-328.255 -277.33)" fill="#ed893e"/>
        <path id="Path_65948" data-name="Path 65948" d="M349.017,293.759a2.856,2.856,0,0,1-.347-.048.073.073,0,0,1-.052-.085.069.069,0,0,1,.085-.052,1.88,1.88,0,0,0,1.65-.383.07.07,0,0,1,.1.1A1.965,1.965,0,0,1,349.017,293.759Z" transform="translate(-330.395 -280.623)" fill="#263238"/>
        <path id="Path_65949" data-name="Path 65949" d="M361.4,292.876a2.127,2.127,0,0,1-1.356.892c-.734.137-1.037-.537-.775-1.21.234-.593.9-1.376,1.614-1.21a.956.956,0,0,1,.516,1.529Z" transform="translate(-336.696 -279.522)" fill="#ffb573"/>
        <path id="Path_65950" data-name="Path 65950" d="M354.16,284.317a.133.133,0,0,1-.117-.113,1.654,1.654,0,0,0-.871-.992.141.141,0,1,1,.117-.254,1.913,1.913,0,0,1,1.025,1.21.141.141,0,0,1-.109.161Z" transform="translate(-333.053 -274.517)" fill="#263238"/>
        <path id="Path_65951" data-name="Path 65951" d="M344.622,280.846a.145.145,0,0,1-.125-.065.141.141,0,0,1,.04-.194,1.384,1.384,0,0,1,1.259-.161.138.138,0,1,1-.109.254,1.122,1.122,0,0,0-1,.141A.141.141,0,0,1,344.622,280.846Z" transform="translate(-327.924 -272.971)" fill="#263238"/>
        <path id="Path_65952" data-name="Path 65952" d="M351.536,286.076l-.516-.286S351.206,286.278,351.536,286.076Z" transform="translate(-331.828 -276.22)" fill="#263238"/>
        <path id="Path_65953" data-name="Path 65953" d="M347.634,354.212l.3,1.065c.044.085-.057.169-.194.169H335.471c-.109,0-.2-.056-.2-.121l-.109-1.069c0-.073.085-.137.2-.137h12.079A.214.214,0,0,1,347.634,354.212Z" transform="translate(-322.367 -316.983)" fill="#00b4bd"/>
        <path id="Path_65954" data-name="Path 65954" d="M347.634,354.212l.3,1.065c.044.085-.057.169-.194.169H335.471c-.109,0-.2-.056-.2-.121l-.109-1.069c0-.073.085-.137.2-.137h12.079A.214.214,0,0,1,347.634,354.212Z" transform="translate(-322.367 -316.983)" opacity="0.2"/>
        <path id="Path_65955" data-name="Path 65955" d="M361.588,355.423h.323c.065,0,.113-.032.109-.073l-.153-1.388c0-.04-.061-.073-.125-.073h-.323c-.065,0-.113.032-.109.073l.153,1.388C361.451,355.391,361.507,355.423,361.588,355.423Z" transform="translate(-337.967 -316.846)" fill="#00b4bd"/>
        <path id="Path_65956" data-name="Path 65956" d="M361.588,355.423h.323c.065,0,.113-.032.109-.073l-.153-1.388c0-.04-.061-.073-.125-.073h-.323c-.065,0-.113.032-.109.073l.153,1.388C361.451,355.391,361.507,355.423,361.588,355.423Z" transform="translate(-337.967 -316.846)" opacity="0.4"/>
        <path id="Path_65957" data-name="Path 65957" d="M337.774,355.423h.323c.065,0,.117-.032.113-.073l-.153-1.388c0-.04-.061-.073-.125-.073h-.323c-.065,0-.113.032-.109.073l.149,1.388C337.653,355.391,337.7,355.423,337.774,355.423Z" transform="translate(-323.763 -316.846)" fill="#00b4bd"/>
        <path id="Path_65958" data-name="Path 65958" d="M337.774,355.423h.323c.065,0,.117-.032.113-.073l-.153-1.388c0-.04-.061-.073-.125-.073h-.323c-.065,0-.113.032-.109.073l.149,1.388C337.653,355.391,337.7,355.423,337.774,355.423Z" transform="translate(-323.763 -316.846)" opacity="0.4"/>
        <path id="Path_65959" data-name="Path 65959" d="M349.588,355.423h.323c.065,0,.113-.032.109-.073l-.149-1.388c0-.04-.061-.073-.125-.073h-.323c-.065,0-.117.032-.113.073l.153,1.388A.132.132,0,0,0,349.588,355.423Z" transform="translate(-330.808 -316.846)" fill="#00b4bd"/>
        <path id="Path_65960" data-name="Path 65960" d="M349.588,355.423h.323c.065,0,.113-.032.109-.073l-.149-1.388c0-.04-.061-.073-.125-.073h-.323c-.065,0-.117.032-.113.073l.153,1.388A.132.132,0,0,0,349.588,355.423Z" transform="translate(-330.808 -316.846)" opacity="0.4"/>
        <path id="Path_65961" data-name="Path 65961" d="M343.593,360.085l-2.893-1.3.807,2.868s1.84.4,2.638-.5Z" transform="translate(-325.672 -319.77)" fill="#ffb573"/>
        <path id="Path_65962" data-name="Path 65962" d="M357.4,320.71c.133,1.009.238,2.017.359,3.026l.307,3.03c.109,1.009.186,2.017.274,3.03l.141,1.521.032.379a1.959,1.959,0,0,0,.02.307,3.4,3.4,0,0,1,0,.351,3.183,3.183,0,0,1-.4,1.23,5.1,5.1,0,0,1-1.364,1.493,10.716,10.716,0,0,1-1.46.924,20.978,20.978,0,0,1-2.965,1.247,38.134,38.134,0,0,1-6.052,1.493l-.331-1.448c.94-.311,1.9-.629,2.824-.984s1.86-.706,2.751-1.114a21.39,21.39,0,0,0,2.55-1.327,8.687,8.687,0,0,0,1.069-.775,2.59,2.59,0,0,0,.641-.771.508.508,0,0,0,.061-.21l-.069-.48-.214-1.509c-.141-1-.3-2.017-.4-3.018l-.383-3.022c-.109-1.013-.238-2.017-.331-3.03Z" transform="translate(-328.81 -297.052)" fill="#ffb573"/>
        <path id="Path_65963" data-name="Path 65963" d="M366.02,311.844c1.21.363,2.63,4.478,2.63,4.478l-4.192,4.3s-2.146-4.438-1.642-5.967C363.349,313.05,364.656,311.433,366.02,311.844Z" transform="translate(-338.82 -291.725)" fill="#263238"/>
        <path id="Path_65964" data-name="Path 65964" d="M334.76,359.367l.819,2.364,2.4-.093-.827-2.868Z" transform="translate(-322.128 -319.758)" fill="#ffb573"/>
      </g>
      <path id="Path_65965" data-name="Path 65965" d="M265.572,215.168H212.6a1.751,1.751,0,0,1-1.751-1.751h0a1.747,1.747,0,0,1,1.751-1.747h52.971a1.747,1.747,0,0,1,1.747,1.747h0a1.747,1.747,0,0,1-1.747,1.751Z" transform="translate(-157.386 -159.558)" fill="#fff"/>
      <path id="Path_65966" data-name="Path 65966" d="M253.272,233.4H212.6a1.747,1.747,0,0,1-1.751-1.747h0A1.751,1.751,0,0,1,212.6,229.9h40.671a1.751,1.751,0,0,1,1.751,1.751h0a1.747,1.747,0,0,1-1.751,1.747Z" transform="translate(-157.386 -170.433)" fill="#fff"/>
      <path id="Path_65967" data-name="Path 65967" d="M232.137,299.488h20.208a1.751,1.751,0,0,0,1.751-1.751h0a1.747,1.747,0,0,0-1.751-1.747H232.137a1.747,1.747,0,0,0-1.747,1.747h0a1.747,1.747,0,0,0,1.747,1.751Z" transform="translate(-169.043 -209.86)" fill="#fff"/>
      <path id="Path_65968" data-name="Path 65968" d="M176.477,299.488H190.42a1.747,1.747,0,0,0,1.747-1.751h0a1.747,1.747,0,0,0-1.747-1.747H176.477a1.747,1.747,0,0,0-1.747,1.747h0a1.747,1.747,0,0,0,1.747,1.751Z" transform="translate(-135.839 -209.86)" fill="#fff"/>
      <path id="Path_65969" data-name="Path 65969" d="M150.927,317.718H203.9a1.747,1.747,0,0,0,1.751-1.747h0a1.751,1.751,0,0,0-1.751-1.751H150.927a1.747,1.747,0,0,0-1.747,1.751h0a1.747,1.747,0,0,0,1.747,1.747Z" transform="translate(-120.596 -220.735)" fill="#fff"/>
      <path id="Path_65970" data-name="Path 65970" d="M94.855,92.512a1.682,1.682,0,1,1-1.678-1.682A1.682,1.682,0,0,1,94.855,92.512Z" transform="translate(-86.181 -87.469)" fill="#fff"/>
      <circle id="Ellipse_501" data-name="Ellipse 501" cx="1.682" cy="1.682" r="1.682" transform="translate(11.03 3.361)" fill="#fff"/>
      <circle id="Ellipse_502" data-name="Ellipse 502" cx="1.682" cy="1.682" r="1.682" transform="translate(16.747 3.361)" fill="#fff"/>
    </g>
  </g>
</svg>
