<svg xmlns="http://www.w3.org/2000/svg" width="19.512" height="19.512" viewBox="0 0 19.512 19.512">
  <path id="Path_66111" data-name="Path 66111" d="M19.26,3H6.252A3.252,3.252,0,0,0,3,6.252V19.26a3.252,3.252,0,0,0,3.252,3.252H19.26a3.252,3.252,0,0,0,3.252-3.252V6.252A3.252,3.252,0,0,0,19.26,3ZM8.42,7.336A1.626,1.626,0,1,1,6.794,8.962,1.626,1.626,0,0,1,8.42,7.336Zm11.924,11.74a1.182,1.182,0,0,1-1.084,1.268H6.252l8.206-7.393a.748.748,0,0,1,1.008,0l4.878,4.856Z" transform="translate(-3 -3)" fill="#aeaeae"/>
</svg>
