<svg xmlns="http://www.w3.org/2000/svg" width="14.211" height="14.211" viewBox="0 0 14.211 14.211">
  <path id="Path_66113" data-name="Path 66113" d="M15.845,12.7l-2.009-.229a1.575,1.575,0,0,0-1.3.451l-1.456,1.456A11.9,11.9,0,0,1,5.869,9.165L7.333,7.7a1.575,1.575,0,0,0,.451-1.3L7.554,4.41A1.583,1.583,0,0,0,5.98,3.01H4.611A1.57,1.57,0,0,0,3.029,4.648,13.442,13.442,0,0,0,15.6,17.218a1.57,1.57,0,0,0,1.638-1.582V14.267A1.568,1.568,0,0,0,15.845,12.7Z" transform="translate(-3.026 -3.01)" fill="rgb(0, 255, 220)"/>
</svg>
