<svg xmlns="http://www.w3.org/2000/svg" width="19.553" height="17.597" viewBox="0 0 19.553 17.597">
  <g id="camera" transform="translate(-299 -287)">
    <circle id="Ellipse_446" data-name="Ellipse 446" cx="3.128" cy="3.128" r="3.128" transform="translate(305.648 293.648)" fill="#fff"/>
    <path id="Path_63145" data-name="Path 63145" d="M10.843,4,9.054,5.955h-3.1A1.955,1.955,0,0,0,4,7.911V19.642A1.955,1.955,0,0,0,5.955,21.6H21.6a1.955,1.955,0,0,0,1.955-1.955V7.911A1.955,1.955,0,0,0,21.6,5.955H18.5L16.709,4Zm2.933,14.665a4.888,4.888,0,1,1,4.888-4.888A4.89,4.89,0,0,1,13.776,18.665Z" transform="translate(295 283)" fill="#fff"/>
  </g>
</svg>
