<svg xmlns="http://www.w3.org/2000/svg" xmlns:xlink="http://www.w3.org/1999/xlink" width="50.761" height="39.34" viewBox="0 0 50.761 39.34">
  <defs>
    <linearGradient id="linear-gradient" x1="0.5" x2="0.5" y2="1" gradientUnits="objectBoundingBox">
      <stop offset="0" stop-color="#02b3bd"/>
      <stop offset="1" stop-color="#00868e"/>
    </linearGradient>
  </defs>
  <path id="clothing" d="M50.761,27.643a2.472,2.472,0,0,1-.556,1.562l-3.963,4.888a2.562,2.562,0,0,1-3.568.391l-4.6-3.629V51.533a3.807,3.807,0,0,1-3.807,3.807H16.5a3.808,3.808,0,0,1-3.807-3.807V30.856L8.018,34.488a2.207,2.207,0,0,1-1.516.476,2.547,2.547,0,0,1-1.984-.94L.556,29.206a2.481,2.481,0,0,1,.4-3.52L11.66,17.231A5.746,5.746,0,0,1,15.157,16h2.736a7.59,7.59,0,0,0,14.974,0h2.665A5.761,5.761,0,0,1,39.1,17.235L49.807,25.69A2.483,2.483,0,0,1,50.761,27.643Z" transform="translate(0 -16)" fill="url(#linear-gradient)"/>
</svg>
