<svg xmlns="http://www.w3.org/2000/svg" width="234.746" height="216.5" viewBox="0 0 234.746 216.5">
  <g id="contact_us" transform="translate(-125.148 -160.832)">
    <g id="freepik--Shadow--inject-53" transform="translate(125.148 363.627)">
      <ellipse id="Ellipse_471" data-name="Ellipse 471" cx="117.373" cy="6.853" rx="117.373" ry="6.853" transform="translate(0 0)" fill="#e1e1e1"/>
    </g>
    <g id="Group_29778" data-name="Group 29778" transform="translate(153.436 160.832)">
      <g id="freepik--speech-bubble--inject-53" transform="translate(34.696)">
        <path id="Path_65804" data-name="Path 65804" d="M359.561,164.29H304.141A8.141,8.141,0,0,0,296,172.4V202.4a8.141,8.141,0,0,0,8.121,8.114h5.611l-2.163,8.833a23.437,23.437,0,0,0,16.268-8.82h35.724a8.141,8.141,0,0,0,8.121-8.114V172.4a8.141,8.141,0,0,0-8.121-8.114Z" transform="translate(-215.552 -121.224)" fill="#00b4bd"/>
        <path id="Path_65805" data-name="Path 65805" d="M359.561,164.29H304.141A8.141,8.141,0,0,0,296,172.4V202.4a8.141,8.141,0,0,0,8.121,8.114h5.611l-2.163,8.833a23.437,23.437,0,0,0,16.268-8.82h35.724a8.141,8.141,0,0,0,8.121-8.114V172.4a8.141,8.141,0,0,0-8.121-8.114Z" transform="translate(-215.552 -121.224)" opacity="0.3"/>
        <ellipse id="Ellipse_472" data-name="Ellipse 472" cx="6.856" cy="6.856" rx="6.856" ry="6.856" transform="translate(130.624 59.321)" fill="#00b4bd"/>
        <ellipse id="Ellipse_473" data-name="Ellipse 473" cx="6.856" cy="6.856" rx="6.856" ry="6.856" transform="translate(109.443 59.321)" fill="#00b4bd"/>
        <ellipse id="Ellipse_474" data-name="Ellipse 474" cx="6.856" cy="6.856" rx="6.856" ry="6.856" transform="translate(88.269 59.321)" fill="#00b4bd"/>
        <g id="Group_29776" data-name="Group 29776" transform="translate(88.269 59.321)" opacity="0.1">
          <ellipse id="Ellipse_475" data-name="Ellipse 475" cx="6.856" cy="6.856" rx="6.856" ry="6.856" transform="translate(42.354)" fill="#fafafa"/>
          <ellipse id="Ellipse_476" data-name="Ellipse 476" cx="6.856" cy="6.856" rx="6.856" ry="6.856" transform="translate(21.174)" fill="#fafafa"/>
          <ellipse id="Ellipse_477" data-name="Ellipse 477" cx="6.856" cy="6.856" rx="6.856" ry="6.856" fill="#fafafa"/>
        </g>
        <path id="Path_65806" data-name="Path 65806" d="M183.254,99.59h55.427a8.147,8.147,0,0,1,8.121,8.121V137.7a8.147,8.147,0,0,1-8.121,8.094H233.07l2.183,8.813a23.45,23.45,0,0,1-16.275-8.813H183.254a8.141,8.141,0,0,1-8.114-8.121V107.717A8.141,8.141,0,0,1,183.254,99.59Z" transform="translate(-175.14 -99.59)" fill="#00b4bd"/>
        <path id="Path_65807" data-name="Path 65807" d="M183.254,99.59h55.427a8.147,8.147,0,0,1,8.121,8.121V137.7a8.147,8.147,0,0,1-8.121,8.094H233.07l2.183,8.813a23.45,23.45,0,0,1-16.275-8.813H183.254a8.141,8.141,0,0,1-8.114-8.121V107.717A8.141,8.141,0,0,1,183.254,99.59Z" transform="translate(-175.14 -99.59)" fill="#fafafa" opacity="0.1"/>
        <rect id="Rectangle_5611" data-name="Rectangle 5611" width="52.032" height="4.926" transform="translate(9.811 10.444)" fill="#00b4bd"/>
        <rect id="Rectangle_5612" data-name="Rectangle 5612" width="40.131" height="4.926" transform="translate(9.811 20.648)" fill="#00b4bd"/>
        <rect id="Rectangle_5613" data-name="Rectangle 5613" width="45.369" height="4.926" transform="translate(9.811 30.859)" fill="#00b4bd"/>
        <g id="Group_29777" data-name="Group 29777" transform="translate(9.811 10.444)" opacity="0.3">
          <rect id="Rectangle_5614" data-name="Rectangle 5614" width="52.032" height="4.926"/>
          <rect id="Rectangle_5615" data-name="Rectangle 5615" width="40.131" height="4.926" transform="translate(0 10.204)"/>
          <rect id="Rectangle_5616" data-name="Rectangle 5616" width="45.369" height="4.926" transform="translate(0 20.415)"/>
        </g>
      </g>
      <g id="freepik--Character--inject-53" transform="translate(0 68.693)">
        <path id="Path_65808" data-name="Path 65808" d="M290.032,311.31h0c-.366,0-.739,0-1.118.033-7.908.566-14.3,7.262-14.81,15.5a17.5,17.5,0,0,0,.513,5.412,86.483,86.483,0,0,1,2.5,21.666v21.3a2.742,2.742,0,0,0,2.663,2.8H332.6V311.31Z" transform="translate(-173.523 -239.075)" fill="#00b4bd"/>
        <path id="Path_65809" data-name="Path 65809" d="M290.032,311.31h0c-.366,0-.739,0-1.118.033-7.908.566-14.3,7.262-14.81,15.5a17.5,17.5,0,0,0,.513,5.412,86.483,86.483,0,0,1,2.5,21.666v21.3a2.742,2.742,0,0,0,2.663,2.8H332.6V311.31Z" transform="translate(-173.523 -239.075)" opacity="0.3"/>
        <path id="Path_65810" data-name="Path 65810" d="M369.964,327.937c0-9.565-7.755-17.253-17.08-16.588-7.908.566-14.3,7.262-14.81,15.5a17.491,17.491,0,0,0,.513,5.412,86.488,86.488,0,0,1,2.5,21.666v21.3a2.742,2.742,0,0,0,2.662,2.8h20.468a2.736,2.736,0,0,0,2.663-2.8V352.679A78.839,78.839,0,0,1,369.4,332.4,17.428,17.428,0,0,0,369.964,327.937Z" transform="translate(-194.913 -239.075)" fill="#00b4bd"/>
        <rect id="Rectangle_5617" data-name="Rectangle 5617" width="67.335" height="40.484" transform="translate(69.761 98.427)" fill="#00b4bd"/>
        <rect id="Rectangle_5618" data-name="Rectangle 5618" width="67.335" height="40.484" transform="translate(69.761 98.427)" opacity="0.3"/>
        <path id="Path_65811" data-name="Path 65811" d="M167.924,277.81h74.351A12.327,12.327,0,0,1,254.6,290.137v45.316H155.59V290.137A12.328,12.328,0,0,1,167.924,277.81Z" transform="translate(-133.907 -227.874)" fill="#00b4bd"/>
        <path id="Path_65812" data-name="Path 65812" d="M167.924,277.81h74.351A12.327,12.327,0,0,1,254.6,290.137v45.316H155.59V290.137A12.328,12.328,0,0,1,167.924,277.81Z" transform="translate(-133.907 -227.874)" opacity="0.4"/>
        <path id="Path_65813" data-name="Path 65813" d="M190.185,277.81H253.74a11.735,11.735,0,0,1,11.735,11.735v45.929H178.45V289.545A11.735,11.735,0,0,1,190.185,277.81Z" transform="translate(-141.551 -227.874)" fill="#00b4bd"/>
        <path id="Path_65814" data-name="Path 65814" d="M233.055,344.33h62.616a3.634,3.634,0,0,1,3.634,3.634V357.7a3.634,3.634,0,0,1-3.634,3.634H233.055a1.085,1.085,0,0,1-1.085-1.085v-14.81a1.085,1.085,0,0,1,1.085-1.112Z" transform="translate(-159.446 -250.116)" fill="#00b4bd"/>
        <path id="Path_65815" data-name="Path 65815" d="M233.055,344.33h62.616a3.634,3.634,0,0,1,3.634,3.634V357.7a3.634,3.634,0,0,1-3.634,3.634H233.055a1.085,1.085,0,0,1-1.085-1.085v-14.81a1.085,1.085,0,0,1,1.085-1.112Z" transform="translate(-159.446 -250.116)" opacity="0.4"/>
        <path id="Path_65816" data-name="Path 65816" d="M145.763,411.49H290.518v.04a2,2,0,0,1-2,2H147.747a2,2,0,0,1-2-2v-.04Z" transform="translate(-130.617 -272.573)" fill="#00b4bd"/>
        <path id="Path_65817" data-name="Path 65817" d="M145.763,411.49H290.518v.04a2,2,0,0,1-2,2H147.747a2,2,0,0,1-2-2v-.04Z" transform="translate(-130.617 -272.573)" opacity="0.4"/>
        <path id="Path_65818" data-name="Path 65818" d="M272.37,267.74l.266,1.085.306,1.178c.213.785.439,1.578.666,2.363.473,1.584.985,3.168,1.518,4.746s1.085,3.162,1.684,4.726c.3.785.592,1.571.9,2.35l.366.939a1.811,1.811,0,0,0,.286.446,8.241,8.241,0,0,0,3.162,2,30.742,30.742,0,0,0,4.506,1.4c1.584.366,3.215.666,4.866.925s3.328.466,4.966.666l.06,3.361a51.555,51.555,0,0,1-10.717-.047,30.719,30.719,0,0,1-5.511-1.072,18.214,18.214,0,0,1-2.836-1.112,10.97,10.97,0,0,1-2.849-2,7.927,7.927,0,0,1-1.251-1.611c-.093-.153-.173-.319-.26-.486l-.16-.333-.293-.592c-.386-.792-.772-1.591-1.132-2.4-.726-1.611-1.425-3.228-2.057-4.886s-1.238-3.328-1.777-5.039c-.26-.859-.506-1.717-.739-2.6l-.34-1.331c-.107-.466-.193-.865-.3-1.424Z" transform="translate(-170.725 -224.507)" fill="#ecd295"/>
        <path id="Path_65819" data-name="Path 65819" d="M268.4,256.888c2.663.666,4.553,11.708,4.553,11.708l-7.382,5.019s-7.082-11.123-5.019-14.065C262.721,256.482,264.485,255.9,268.4,256.888Z" transform="translate(-168.877 -220.73)" fill="#00b4bd"/>
        <path id="Path_65820" data-name="Path 65820" d="M268.4,256.888c2.663.666,4.553,11.708,4.553,11.708l-7.382,5.019s-7.082-11.123-5.019-14.065C262.721,256.482,264.485,255.9,268.4,256.888Z" transform="translate(-168.877 -220.73)" fill="#fafafa" opacity="0.5"/>
        <path id="Path_65821" data-name="Path 65821" d="M269.734,263.13,264,264.461l-.552,5.6a64.85,64.85,0,0,0,3.215,5.784l4.473-3.042C270.952,270.232,270.472,264.874,269.734,263.13Z" transform="translate(-169.972 -222.966)" fill="#00b4bd"/>
        <path id="Path_65822" data-name="Path 65822" d="M269.734,263.13,264,264.461l-.552,5.6a64.85,64.85,0,0,0,3.215,5.784l4.473-3.042C270.952,270.232,270.472,264.874,269.734,263.13Z" transform="translate(-169.972 -222.966)" fill="#fafafa" opacity="0.3"/>
        <path id="Path_65823" data-name="Path 65823" d="M309.272,299.589l4.613-4.659.606,6.583s-3.461,2.336-5.851,1.078Z" transform="translate(-185.082 -233.599)" fill="#b55b52"/>
        <path id="Path_65824" data-name="Path 65824" d="M321.938,293.86l.206,5.538-5.019,1.744-.606-6.583Z" transform="translate(-187.717 -233.241)" fill="#b55b52"/>
        <path id="Path_65825" data-name="Path 65825" d="M255.367,256.166s3.1,1.092-3.108,39.232h-26.4c.446-10.743.459-17.373-4.659-39.419a77.732,77.732,0,0,1,11.183-1.478,83.7,83.7,0,0,1,11.981,0C249.529,254.975,255.367,256.166,255.367,256.166Z" transform="translate(-155.845 -220.009)" fill="#00b4bd"/>
        <path id="Path_65826" data-name="Path 65826" d="M255.367,256.166s3.1,1.092-3.108,39.232h-26.4c.446-10.743.459-17.373-4.659-39.419a77.732,77.732,0,0,1,11.183-1.478,83.7,83.7,0,0,1,11.981,0C249.529,254.975,255.367,256.166,255.367,256.166Z" transform="translate(-155.845 -220.009)" fill="#fafafa" opacity="0.5"/>
        <path id="Path_65827" data-name="Path 65827" d="M251.692,254.848c-1.012-.133-2.05-.253-3.062-.346a83.7,83.7,0,0,0-11.981,0c-.925.047-1.844.113-2.729.2l.193.606a22.662,22.662,0,0,0,12.274,12.647l1.824.819,1.291-1.531A12.081,12.081,0,0,0,251.692,254.848Z" transform="translate(-160.098 -220.009)" fill="#00b4bd"/>
        <path id="Path_65828" data-name="Path 65828" d="M251.692,254.848c-1.012-.133-2.05-.253-3.062-.346a83.7,83.7,0,0,0-11.981,0c-.925.047-1.844.113-2.729.2l.193.606a22.662,22.662,0,0,0,12.274,12.647l1.824.819,1.291-1.531A12.081,12.081,0,0,0,251.692,254.848Z" transform="translate(-160.098 -220.009)" opacity="0.3"/>
        <path id="Path_65829" data-name="Path 65829" d="M228.788,272.21l-3.408,2.9c.732,3.861,1.218,7.076,1.531,9.931C227.55,282.168,229.167,274.4,228.788,272.21Z" transform="translate(-157.243 -226.002)" fill="#00b4bd"/>
        <path id="Path_65830" data-name="Path 65830" d="M228.788,272.21l-3.408,2.9c.732,3.861,1.218,7.076,1.531,9.931C227.55,282.168,229.167,274.4,228.788,272.21Z" transform="translate(-157.243 -226.002)" fill="#fafafa" opacity="0.3"/>
        <path id="Path_65831" data-name="Path 65831" d="M237.61,204.261c-6.989-2.19-10.883,5.325-10.211,14.724.486,6.736-.872,9.672-4.9,9.472,1.884,4.426,25.627,11.083,32.5,3.168-1.93-1.045-2.9-5.7-1.484-9.865C256.707,212.362,253.745,198.17,237.61,204.261Z" transform="translate(-156.28 -202.79)" fill="#263238"/>
        <path id="Path_65832" data-name="Path 65832" d="M239.2,234.33c.752,3.861,1.511,10.923-1.191,13.5a20.048,20.048,0,0,0,10.823,11.023,9.751,9.751,0,0,0,1.152-11.023c-4.3-1.025-4.187-4.22-3.441-7.215Z" transform="translate(-161.466 -213.336)" fill="#ecd295"/>
        <path id="Path_65833" data-name="Path 65833" d="M244.228,238.18l4.36,3.721a12.571,12.571,0,0,0-.373,2.123c-1.644-.233-3.9-2.037-4.074-3.761a5.8,5.8,0,0,1,.087-2.083Z" transform="translate(-163.497 -214.623)" fill="#d8b972"/>
        <path id="Path_65834" data-name="Path 65834" d="M239.605,214.685c-1.511,6.27-2.283,8.893-.146,13.006,3.215,6.184,11.249,6.656,14.6.979,3.022-5.125,4.986-14.517-.286-18.817a8.8,8.8,0,0,0-14.171,4.833Z" transform="translate(-161.51 -204.48)" fill="#ecd295"/>
        <path id="Path_65835" data-name="Path 65835" d="M238.67,218.193s12.98-4.04,7.042-10.863c-6.989,1.724-7.042,3.774-7.042,3.774Z" transform="translate(-161.687 -204.308)" fill="#263238"/>
        <path id="Path_65836" data-name="Path 65836" d="M249.323,210.668c4.886.506,9.745,3.381,11.316,5.991.905-4.44-2.276-9.984-5.818-10.763s-7.821.885-7.821.885Z" transform="translate(-164.472 -203.759)" fill="#263238"/>
        <path id="Path_65837" data-name="Path 65837" d="M235.49,223.281a4.893,4.893,0,0,0,1.265,3.368c1.118,1.211,2.476.419,2.836-1.078.32-1.331.126-3.614-1.331-4.267A1.975,1.975,0,0,0,235.49,223.281Z" transform="translate(-160.623 -208.917)" fill="#ecd295"/>
        <path id="Path_65838" data-name="Path 65838" d="M290.944,320.452c-14.737-.206-24.4,9.911-24.4,9.911,1.411,4.094,2.3,7.169,2.3,7.169,8.074-1.431,17.247-2.063,24.808-3.881,6.829-1.644,7.615-9.885,6.916-13.313s-4.573-4.22-8.367-5.325c-4.333-1.245-12.607-1.278-18.538-1.238a114.517,114.517,0,0,0-18.738,1.524s-9.046-.286-15.742-.12c-3.914-.559-1.611,5.125,4.566,9.938a29.727,29.727,0,0,0,22.718,5.718h.047" transform="translate(-161.216 -239.897)" fill="#263238"/>
        <path id="Path_65839" data-name="Path 65839" d="M278.753,344.257l-1.877-7.056a.513.513,0,0,0-.559-.393l-5.8.666a1.038,1.038,0,0,0-.852,1.331c.7,2.449,1.158,3.594,2,6.7.506,1.91,1.331,5.911,2.057,8.547s3.328,2.083,3.295.925c-.253-5.205.666-7.528,1.644-9.558a1.691,1.691,0,0,0,.093-1.158Z" transform="translate(-172.036 -247.6)" fill="#263238"/>
        <path id="Path_65840" data-name="Path 65840" d="M283.754,352.406a.785.785,0,0,1-.433-.133c-.779-.506-1.005-2.363-1.072-3.421a.107.107,0,0,1,.186-.08c.22.24,2.15,2.383,1.944,3.248a.446.446,0,0,1-.306.32A.786.786,0,0,1,283.754,352.406Zm-1.265-3.248c.133,1.538.479,2.623.952,2.929a.592.592,0,0,0,.559.053.24.24,0,0,0,.166-.173c.14-.566-1.018-2.05-1.677-2.809Z" transform="translate(-176.258 -251.589)" fill="#00b4bd"/>
        <path id="Path_65841" data-name="Path 65841" d="M282.146,344.624l-2.436-9.139,3.208-1.325,4.52,9.811Z" transform="translate(-175.409 -246.716)" fill="#00b4bd"/>
        <path id="Path_65842" data-name="Path 65842" d="M282.146,344.624l-2.436-9.139,3.208-1.325,4.52,9.811Z" transform="translate(-175.409 -246.716)" fill="#fafafa" opacity="0.6"/>
        <path id="Path_65843" data-name="Path 65843" d="M284.916,350.38a4.983,4.983,0,0,1-2.663-1.511.12.12,0,0,1,0-.107.127.127,0,0,1,.08-.073,4.487,4.487,0,0,1,2.663.293,1.052,1.052,0,0,1,.459.725c.067.393-.1.559-.246.619A.559.559,0,0,1,284.916,350.38Zm-2.343-1.511c.666.666,2.077,1.451,2.523,1.258.04,0,.166-.08.12-.393a.832.832,0,0,0-.373-.579A3.838,3.838,0,0,0,282.573,348.869Z" transform="translate(-176.255 -251.547)" fill="#00b4bd"/>
        <path id="Path_65844" data-name="Path 65844" d="M225.21,316.3c-8.194-1.052-20.315-1.458-21.007,7.082s5.2,17.306,21.22,17.779,19.483-3.555,20.055-6.989c.732-4.34,2-5.445-1.831-7.408S239.115,318.081,225.21,316.3Z" transform="translate(-150.144 -240.561)" fill="#263238"/>
        <path id="Path_65845" data-name="Path 65845" d="M260.873,345.15l-1.884-7.056a.513.513,0,0,1,.293-.619l5.372-2.29a1.045,1.045,0,0,1,1.384.706c.612,2.476.785,3.7,1.611,6.8.506,1.91,1.757,5.8,2.463,8.44s-1.87,3.475-2.4,2.436c-2.37-4.659-4.347-6.19-6.184-7.475A1.7,1.7,0,0,1,260.873,345.15Z" transform="translate(-168.474 -247.035)" fill="#263238"/>
        <path id="Path_65846" data-name="Path 65846" d="M263.021,354.357a.433.433,0,0,1-.326-.14c-.612-.666,0-3.461.067-3.781a.106.106,0,0,1,.093-.087.1.1,0,0,1,.106.06c.473.952,1.2,2.663.772,3.5a.806.806,0,0,1-.619.439Zm-.113-3.561c-.193.992-.459,2.849-.06,3.268a.24.24,0,0,0,.233.073.6.6,0,0,0,.459-.326c.353-.686-.28-2.243-.632-3.029Z" transform="translate(-169.629 -252.129)" fill="#00b4bd"/>
        <path id="Path_65847" data-name="Path 65847" d="M260.2,353.188c-.16,0-.353-.08-.479-.419a1.1,1.1,0,0,1,.033-.859c.439-.945,2.077-1.538,2.143-1.558a.1.1,0,0,1,.107,0,.093.093,0,0,1,.04.1c-.14.825-1.078,2.663-1.8,2.716Zm1.584-2.556A3.641,3.641,0,0,0,259.957,352a.839.839,0,0,0,0,.666c.107.293.253.28.293.273C260.709,352.922,261.554,351.544,261.787,350.632Z" transform="translate(-168.702 -252.125)" fill="#00b4bd"/>
        <path id="Path_65848" data-name="Path 65848" d="M259.632,345.69l-1.531-8.56-3.741-.14.286,10.9Z" transform="translate(-166.933 -247.662)" fill="#00b4bd"/>
        <path id="Path_65849" data-name="Path 65849" d="M259.632,345.69l-1.531-8.56-3.741-.14.286,10.9Z" transform="translate(-166.933 -247.662)" fill="#fafafa" opacity="0.6"/>
        <path id="Path_65850" data-name="Path 65850" d="M253.54,224.627c-.153.5,0,.985.319,1.092s.719-.226.872-.726,0-.992-.319-1.092S253.7,224.134,253.54,224.627Z" transform="translate(-166.639 -209.843)" fill="#263238"/>
        <path id="Path_65851" data-name="Path 65851" d="M262.05,227.246c-.153.506,0,.992.32,1.092s.719-.226.872-.726,0-.992-.32-1.092S262.21,226.747,262.05,227.246Z" transform="translate(-169.484 -210.719)" fill="#263238"/>
        <path id="Path_65852" data-name="Path 65852" d="M263.16,226.51h1.331S263.566,227.282,263.16,226.51Z" transform="translate(-169.875 -210.721)" fill="#263238"/>
        <path id="Path_65853" data-name="Path 65853" d="M258.895,228.23a13.934,13.934,0,0,0,.805,3.748,2.257,2.257,0,0,1-1.89-.22Z" transform="translate(-168.086 -211.296)" fill="#ecd295"/>
        <path id="Path_65854" data-name="Path 65854" d="M252.511,233.838a.047.047,0,0,1-.04,0,4.44,4.44,0,0,1-2.123-2.549.093.093,0,0,1,.067-.12.1.1,0,0,1,.12.067,4.36,4.36,0,0,0,2,2.43.1.1,0,0,1-.047.186Z" transform="translate(-165.59 -212.278)" fill="#263238"/>
        <path id="Path_65855" data-name="Path 65855" d="M253.052,219.553a.2.2,0,0,1-.107-.366,2.935,2.935,0,0,1,2.663-.353.206.206,0,0,1,.107.26.193.193,0,0,1-.26.1,2.576,2.576,0,0,0-2.31.326A.2.2,0,0,1,253.052,219.553Z" transform="translate(-166.43 -208.097)" fill="#263238"/>
        <path id="Path_65856" data-name="Path 65856" d="M266.349,224.117a.193.193,0,0,1-.173-.107,2.59,2.59,0,0,0-1.877-1.384.193.193,0,0,1-.18-.213.2.2,0,0,1,.213-.173,2.915,2.915,0,0,1,2.19,1.591.2.2,0,0,1-.08.266A.232.232,0,0,1,266.349,224.117Z" transform="translate(-170.196 -209.293)" fill="#263238"/>
        <path id="Path_65857" data-name="Path 65857" d="M254.65,223.89h1.331S255.056,224.669,254.65,223.89Z" transform="translate(-167.03 -209.845)" fill="#263238"/>
        <path id="Path_65858" data-name="Path 65858" d="M227.492,313.619l-.213,2.363c-.093.186.126.373.433.373h26.705c.233,0,.433-.12.446-.266l.24-2.363c0-.166-.186-.306-.453-.306H227.918A.473.473,0,0,0,227.492,313.619Z" transform="translate(-157.871 -239.78)" fill="#00b4bd"/>
        <path id="Path_65859" data-name="Path 65859" d="M227.492,313.619l-.213,2.363c-.093.186.126.373.433.373h26.705c.233,0,.433-.12.446-.266l.24-2.363c0-.166-.186-.306-.453-.306H227.918A.473.473,0,0,0,227.492,313.619Z" transform="translate(-157.871 -239.78)" opacity="0.3"/>
        <path id="Path_65860" data-name="Path 65860" d="M232.518,316.5h-.712c-.146,0-.253-.073-.246-.16l.339-3.075c0-.087.133-.16.273-.16h.719c.14,0,.253.073.24.16l-.333,3.075C232.785,316.432,232.665,316.5,232.518,316.5Z" transform="translate(-159.309 -239.677)" fill="#263238"/>
        <path id="Path_65861" data-name="Path 65861" d="M264.545,316.5h-.666c-.146,0-.253-.073-.24-.16l.333-3.075c0-.087.133-.16.28-.16h.712c.146,0,.253.073.24.16l-.333,3.075A.34.34,0,0,1,264.545,316.5Z" transform="translate(-170.035 -239.677)" fill="#263238"/>
        <path id="Path_65862" data-name="Path 65862" d="M248.518,316.5H247.8c-.14,0-.253-.073-.24-.16l.333-3.075c0-.087.14-.16.28-.16h.719c.14,0,.246.073.24.16l-.339,3.075C248.8,316.432,248.671,316.5,248.518,316.5Z" transform="translate(-164.659 -239.677)" fill="#263238"/>
        <path id="Path_65863" data-name="Path 65863" d="M312.274,288.64H265.946L259.23,316h46.328Z" transform="translate(-168.561 -231.495)" fill="#fafafa"/>
        <path id="Path_65864" data-name="Path 65864" d="M280.291,322.08l-28.336,6.61-18.185-5.1.186-1.511Z" transform="translate(-160.048 -242.677)" fill="#fafafa"/>
        <path id="Path_65865" data-name="Path 65865" d="M221.439,269.9c-.559,1.811-1.158,3.694-1.691,5.558s-1.1,3.721-1.584,5.585-.952,3.721-1.331,5.545c-.173.905-.333,1.811-.439,2.663a12.649,12.649,0,0,0-.12,1.811,3.228,3.228,0,0,0,.785,1.3,11.2,11.2,0,0,0,1.791,1.578,32.774,32.774,0,0,0,4.659,2.809,101.843,101.843,0,0,0,10.65,4.493l-.805,3.262a64.082,64.082,0,0,1-11.855-3.135,34.687,34.687,0,0,1-5.8-2.749,17.614,17.614,0,0,1-2.829-2.143,8.872,8.872,0,0,1-2.416-3.648,6.768,6.768,0,0,1-.286-1.331v-2.789c.06-1.118.18-2.177.333-3.215a59.214,59.214,0,0,1,1.165-6.084c.5-1.984.959-3.947,1.511-5.891s1.138-3.854,1.817-5.8Z" transform="translate(-152.157 -224.5)" fill="#ecd295"/>
        <path id="Path_65866" data-name="Path 65866" d="M217.826,256.757c-2.663.805-6.656,11.183-6.656,11.183l10.257,7.322s4.613-8.873,3.5-12.294C223.737,259.419,220.848,255.838,217.826,256.757Z" transform="translate(-152.491 -220.786)" fill="#00b4bd"/>
        <path id="Path_65867" data-name="Path 65867" d="M217.826,256.757c-2.663.805-6.656,11.183-6.656,11.183l10.257,7.322s4.613-8.873,3.5-12.294C223.737,259.419,220.848,255.838,217.826,256.757Z" transform="translate(-152.491 -220.786)" fill="#fafafa" opacity="0.5"/>
        <path id="Path_65868" data-name="Path 65868" d="M243.106,317.608l6.164-1.558-2.935,5.918s-4.167.18-5.545-2.143Z" transform="translate(-162.395 -240.66)" fill="#ecd295"/>
        <path id="Path_65869" data-name="Path 65869" d="M257.041,318.3l-2.729,4.826-5.192-1.158,2.935-5.918Z" transform="translate(-165.181 -240.66)" fill="#ecd295"/>
        <path id="Path_65870" data-name="Path 65870" d="M314.414,288.64H268.086L261.37,316H307.7Z" transform="translate(-169.277 -231.495)" fill="#00b4bd"/>
        <path id="Path_65871" data-name="Path 65871" d="M307.6,329.74l-.186,1.511H261.09l.186-1.511Z" transform="translate(-169.183 -245.238)" fill="#00b4bd"/>
        <rect id="Rectangle_5619" data-name="Rectangle 5619" width="0.666" height="7.981" transform="translate(173.46 117.671)" fill="#00b4bd"/>
        <rect id="Rectangle_5620" data-name="Rectangle 5620" width="0.666" height="7.981" transform="translate(173.46 117.671)" opacity="0.3"/>
        <rect id="Rectangle_5621" data-name="Rectangle 5621" width="0.666" height="2.836" transform="translate(173.46 128.72)" fill="#00b4bd"/>
        <rect id="Rectangle_5622" data-name="Rectangle 5622" width="0.666" height="2.836" transform="translate(173.46 128.72)" opacity="0.3"/>
        <path id="Path_65872" data-name="Path 65872" d="M138.98,311.31h0c-.373,0-.745,0-1.125.033-7.908.566-14.3,7.262-14.8,15.5a17.1,17.1,0,0,0,.513,5.412,86.792,86.792,0,0,1,2.5,21.666v21.3a2.736,2.736,0,0,0,2.663,2.8h64.833V311.31Z" transform="translate(-123.015 -239.075)" fill="#00b4bd"/>
        <path id="Path_65873" data-name="Path 65873" d="M138.98,311.31h0c-.373,0-.745,0-1.125.033-7.908.566-14.3,7.262-14.8,15.5a17.1,17.1,0,0,0,.513,5.412,86.792,86.792,0,0,1,2.5,21.666v21.3a2.736,2.736,0,0,0,2.663,2.8h64.833V311.31Z" transform="translate(-123.015 -239.075)" opacity="0.3"/>
        <path id="Path_65874" data-name="Path 65874" d="M236.962,327.937c0-9.565-7.761-17.253-17.087-16.588-7.908.566-14.3,7.262-14.8,15.5a17.1,17.1,0,0,0,.513,5.412,86.791,86.791,0,0,1,2.5,21.666v21.3a2.736,2.736,0,0,0,2.662,2.8h20.468a2.742,2.742,0,0,0,2.663-2.8V352.679A78.831,78.831,0,0,1,236.35,332.4,17.14,17.14,0,0,0,236.962,327.937Z" transform="translate(-150.44 -239.075)" fill="#00b4bd"/>
      </g>
    </g>
  </g>
</svg>
