<svg xmlns="http://www.w3.org/2000/svg" width="215" height="37.002" viewBox="0 0 215 37.002">
  <g id="cuponBG" transform="translate(-113 -374.999)">
    <g id="Group_29887" data-name="Group 29887">
      <path id="Subtraction_9" data-name="Subtraction 9" d="M-2552.972-4349H-2623v-14.027a4.492,4.492,0,0,0,4-4.473,4.492,4.492,0,0,0-4-4.472V-4386h70.028a4.582,4.582,0,0,0-.028.5,4.5,4.5,0,0,0,4.5,4.5,4.505,4.505,0,0,0,4.5-4.5,4.516,4.516,0,0,0-.028-.5H-2408v13.029a4.491,4.491,0,0,0-4,4.472,4.49,4.49,0,0,0,4,4.472V-4349h-136.027a4.562,4.562,0,0,0,.028-.5,4.505,4.505,0,0,0-4.5-4.5,4.5,4.5,0,0,0-4.5,4.5,4.575,4.575,0,0,0,.028.5Z" transform="translate(2736 4761)" fill="#fffb8d"/>
    </g>
    <line id="Line_1121" data-name="Line 1121" y2="21.5" transform="translate(187.5 382.75)" fill="none" stroke="#40f5cd" stroke-linecap="round" stroke-width="1" stroke-dasharray="3"/>
  </g>
</svg>
