<svg xmlns="http://www.w3.org/2000/svg" xmlns:xlink="http://www.w3.org/1999/xlink" width="35.548" height="40.616" viewBox="0 0 35.548 40.616">
  <defs>
    <linearGradient id="linear-gradient" x1="0.5" x2="0.5" y2="1" gradientUnits="objectBoundingBox">
      <stop offset="0" stop-color="#02b3bd"/>
      <stop offset="1" stop-color="#00868e"/>
    </linearGradient>
  </defs>
  <path id="dining" d="M17.4,11.708a6.843,6.843,0,0,1,.04,3.054,7.338,7.338,0,0,1-1.309,2.768A7.931,7.931,0,0,1,11.8,20.067V37.35a3.111,3.111,0,0,1-.857,2.245,3.22,3.22,0,0,1-2.316.928,3.137,3.137,0,0,1-2.172-.928,3.249,3.249,0,0,1-1-2.245V20.067a7.344,7.344,0,0,1-4.188-2.514A6.771,6.771,0,0,1,0,11.716L2.4.9a1.27,1.27,0,0,1,2.51.282V12.6H6.287L7.642.858A1.063,1.063,0,0,1,8,.186a1.017,1.017,0,0,1,.635-.269,1.106,1.106,0,0,1,.777.269,1.573,1.573,0,0,1,.357.672L11.122,12.6h1.317V1.183a1.806,1.806,0,0,1,.317-.847,1.672,1.672,0,0,1,.872-.422,1.373,1.373,0,0,1,.88.233,1.3,1.3,0,0,1,.5.763ZM35.353,37.35a3.173,3.173,0,1,1-6.345,0V27.832H27.675a5.158,5.158,0,0,1-1.951-.389,5.259,5.259,0,0,1-1.65-1.11,6.919,6.919,0,0,1-1.166-1.658,6.968,6.968,0,0,1-.309-1.951L22.591,13.7a15.288,15.288,0,0,1,2.594-8.211A14.63,14.63,0,0,1,31.871.1a2.426,2.426,0,0,1,1.213-.167,2.529,2.529,0,0,1,1.967,1.332,3.733,3.733,0,0,1,.3,1.187Z" transform="translate(0.195 0.094)" fill="url(#linear-gradient)"/>
</svg>
