<svg xmlns="http://www.w3.org/2000/svg" xmlns:xlink="http://www.w3.org/1999/xlink" width="40.537" height="35.533" viewBox="0 0 40.537 35.533">
  <defs>
    <linearGradient id="linear-gradient" x1="0.5" x2="0.5" y2="1" gradientUnits="objectBoundingBox">
      <stop offset="0" stop-color="#02b3bd"/>
      <stop offset="1" stop-color="#00868e"/>
    </linearGradient>
  </defs>
  <path id="entertainment" d="M36.73,32H3.736A3.793,3.793,0,0,0,0,35.807V63.726a3.793,3.793,0,0,0,3.736,3.807H36.73a3.807,3.807,0,0,0,3.807-3.807V35.807A3.763,3.763,0,0,0,36.73,32ZM8.812,61.822a.635.635,0,0,1-.635.635H4.37a.635.635,0,0,1-.635-.635V58.015a.635.635,0,0,1,.635-.635H8.106a.635.635,0,0,1,.635.635Zm0-10.152a.635.635,0,0,1-.635.635H4.37a.635.635,0,0,1-.635-.635V47.863a.635.635,0,0,1,.635-.635H8.106a.635.635,0,0,1,.635.635V51.67Zm0-10.152a.635.635,0,0,1-.635.635H4.37a.635.635,0,0,1-.635-.635V37.711a.635.635,0,0,1,.635-.635H8.106a.635.635,0,0,1,.635.635Zm19.035,19.67a1.269,1.269,0,0,1-1.269,1.269H13.888a1.269,1.269,0,0,1-1.269-1.269V53.573A1.269,1.269,0,0,1,13.888,52.3h12.69a1.269,1.269,0,0,1,1.269,1.269Zm0-15.228a1.269,1.269,0,0,1-1.269,1.269H13.888a1.269,1.269,0,0,1-1.269-1.269V38.345a1.269,1.269,0,0,1,1.269-1.269h12.69a1.269,1.269,0,0,1,1.269,1.269ZM36.73,61.822a.635.635,0,0,1-.635.635H32.36a.578.578,0,0,1-.563-.635V58.015a.635.635,0,0,1,.635-.635h3.736a.635.635,0,0,1,.635.635v3.807Zm0-10.152a.635.635,0,0,1-.635.635H32.36a.635.635,0,0,1-.635-.635V47.863a.635.635,0,0,1,.635-.635H36.1a.635.635,0,0,1,.635.635Zm0-10.152a.635.635,0,0,1-.635.635H32.36a.635.635,0,0,1-.635-.635V37.711a.625.625,0,0,1,.563-.635h3.736a.635.635,0,0,1,.635.635v3.807Z" transform="translate(0 -32)" fill="url(#linear-gradient)"/>
</svg>
