<svg xmlns="http://www.w3.org/2000/svg" xmlns:xlink="http://www.w3.org/1999/xlink" width="35.533" height="40.609" viewBox="0 0 35.533 40.609">
  <defs>
    <linearGradient id="linear-gradient" x1="0.5" x2="0.5" y2="1" gradientUnits="objectBoundingBox">
      <stop offset="0" stop-color="#02b3bd"/>
      <stop offset="1" stop-color="#00868e"/>
    </linearGradient>
  </defs>
  <path id="events" d="M12.69,2.538V5.076H22.842V2.538a2.538,2.538,0,1,1,5.076,0V5.076h3.807a3.808,3.808,0,0,1,3.807,3.807V12.69H0V8.883A3.807,3.807,0,0,1,3.807,5.076H7.614V2.538a2.538,2.538,0,1,1,5.076,0ZM0,15.228H35.533V36.8a3.808,3.808,0,0,1-3.807,3.807H3.807A3.808,3.808,0,0,1,0,36.8Zm26.023,8.891a1.723,1.723,0,0,0,0-2.625,1.833,1.833,0,0,0-2.625,0l-7.535,7.543-3.8-3.736a1.856,1.856,0,0,0-2.625,2.625L14.514,33a1.723,1.723,0,0,0,2.625,0Z" fill="url(#linear-gradient)"/>
</svg>
