<svg xmlns="http://www.w3.org/2000/svg" width="40" height="40" viewBox="0 0 40 40">
  <g id="fillter_icon" transform="translate(-755 -132)">
    <g id="Ellipse_529" data-name="Ellipse 529" transform="translate(755 132)" fill="#f5f5f5" stroke="#00b4bd" stroke-width="1">
      <circle cx="20" cy="20" r="20" stroke="none"/>
      <circle cx="20" cy="20" r="19.5" fill="none"/>
    </g>
    <g id="filter-list" transform="translate(763 140)">
      <path id="Path_66153" data-name="Path 66153" d="M0,0H24V24H0Z" fill="none"/>
      <path id="Path_66154" data-name="Path 66154" d="M11,18h2a1,1,0,0,0,0-2H11a1,1,0,0,0,0,2ZM3,7A1,1,0,0,0,4,8H20a1,1,0,0,0,0-2H4A1,1,0,0,0,3,7Zm4,6H17a1,1,0,0,0,0-2H7a1,1,0,0,0,0,2Z" fill="#00b4bd"/>
    </g>
  </g>
</svg>
