<svg xmlns="http://www.w3.org/2000/svg" xmlns:xlink="http://www.w3.org/1999/xlink" width="35.533" height="35.533" viewBox="0 0 35.533 35.533">
  <defs>
    <linearGradient id="linear-gradient" x1="0.5" x2="0.5" y2="1" gradientUnits="objectBoundingBox">
      <stop offset="0" stop-color="#02b3bd"/>
      <stop offset="1" stop-color="#00868e"/>
    </linearGradient>
  </defs>
  <path id="gifts" d="M33.312,8.883H20.08v6.662H35.533V11.1A2.221,2.221,0,0,0,33.312,8.883Zm-31.091,0A2.221,2.221,0,0,0,0,11.1v4.442H15.546V8.883Zm0,8.883V33.312a2.221,2.221,0,0,0,2.221,2.221h11.1V17.766Zm28.87,17.766a2.221,2.221,0,0,0,2.221-2.221V17.766H20.08V35.533ZM17.764,6.645h.007a.052.052,0,0,0,0,.018H26.65c3.067,0,4.442-1.492,4.442-3.331S29.716,0,26.65,0a9.467,9.467,0,0,0-6.662,2.792A4.385,4.385,0,0,0,15.5,2.747,9.454,9.454,0,0,0,8.883,0C5.816,0,4.442,1.492,4.442,3.331S5.816,6.662,8.883,6.662h8.883ZM28.87,3.331c0,.917-1.208,1.11-2.221,1.11H21.606c-.018-.031-.033-.064-.051-.093A7.247,7.247,0,0,1,26.65,2.221C27.662,2.221,28.87,2.414,28.87,3.331Zm-22.208,0c0-.917,1.208-1.11,2.221-1.11a7.246,7.246,0,0,1,5.01,2.048c-.036.056-.062.115-.1.173H8.883c-1.013,0-2.221-.193-2.221-1.11Z" fill="url(#linear-gradient)"/>
</svg>
