<svg id="global" xmlns="http://www.w3.org/2000/svg" width="16" height="16" viewBox="0 0 16 16">
  <g id="globe">
    <rect id="Rectangle_5763" data-name="Rectangle 5763" width="16" height="16" transform="translate(16 16) rotate(180)" fill="#f5f5f5" opacity="0"/>
    <path id="Path_66147" data-name="Path 66147" d="M15.333,8.667a6.667,6.667,0,1,0-6.667,6.667A6.667,6.667,0,0,0,15.333,8.667ZM13.953,8H12a8.607,8.607,0,0,0-1.553-4.36A5.333,5.333,0,0,1,13.953,8ZM6.72,9.333h3.947a7.627,7.627,0,0,1-2,4.407A7.333,7.333,0,0,1,6.72,9.333ZM6.72,8A7.6,7.6,0,0,1,8.667,3.6a7.46,7.46,0,0,1,2,4.4Zm.24-4.38A8.787,8.787,0,0,0,5.38,8h-2A5.333,5.333,0,0,1,6.96,3.62ZM3.38,9.333h2a8.573,8.573,0,0,0,1.567,4.373A5.333,5.333,0,0,1,3.38,9.333ZM10.413,13.7A8.76,8.76,0,0,0,12,9.333h1.967A5.333,5.333,0,0,1,10.413,13.7Z" transform="translate(-0.667 -0.667)" fill="#f5f5f5"/>
  </g>
</svg>
