<svg xmlns="http://www.w3.org/2000/svg" width="70" height="70" viewBox="0 0 70 70">
  <g id="jobIcn01" transform="translate(-4354 -7586)">
    <rect id="Rectangle_5640" data-name="Rectangle 5640" width="70" height="70" rx="10" transform="translate(4354 7586)" fill="#00da5a"/>
    <path id="spotify" d="M230.994,477.349c-6.238-3.7-16.667-4.094-22.612-2.242a1.788,1.788,0,0,1-1.072-3.411c6.92-2.047,18.324-1.657,25.536,2.632a1.884,1.884,0,0,1,.682,2.534,2.042,2.042,0,0,1-2.534.487m-.195,5.458a1.468,1.468,0,0,1-2.047.487,25.265,25.265,0,0,0-19.4-2.242,1.48,1.48,0,0,1-.877-2.827,28.512,28.512,0,0,1,21.93,2.632,1.376,1.376,0,0,1,.39,1.949m-2.339,5.361a1.158,1.158,0,0,1-1.657.39c-4.581-2.827-10.331-3.411-17.154-1.852a1.206,1.206,0,1,1-.585-2.339c7.407-1.657,13.84-.975,18.908,2.144a1.168,1.168,0,0,1,.487,1.657M219.493,460a19.493,19.493,0,1,0,19.493,19.493A19.55,19.55,0,0,0,219.493,460" transform="translate(4169.507 7141.507)" fill="#fff" fill-rule="evenodd"/>
  </g>
</svg>
