<svg xmlns="http://www.w3.org/2000/svg" width="39.494" height="79.669" viewBox="0 0 39.494 79.669">
  <g id="logo" transform="translate(0 0)">
    <path id="Path_49349" data-name="Path 49349" d="M1714.213,638.272l12.294-13.33,9.306,12.855-9.306,43.354Z" transform="translate(-1705.266 -601.482)" fill="#00b4bd"/>
    <path id="Path_49350" data-name="Path 49350" d="M1727.071,639.06l-8.241,8.7,8.838,30.751-4.559-31.184Z" transform="translate(-1707.921 -610.703)" fill="#fff"/>
    <path id="Union_50" data-name="Union 50" d="M15.006,6.253,37.693,0,0,20.76Zm20.782,8.136V1.111l.456-.284V14.389ZM36.412.768,36.9.456l2.59,9.515-.487.213Z" transform="translate(0 0)" fill="#00b4bd"/>
    <path id="Path_49354" data-name="Path 49354" d="M1723.514,589.737l10.986-5.992s3.734,6.778,0,11.185C1729.805,599.173,1723.514,589.737,1723.514,589.737Z" transform="translate(-1710.784 -574.527)" fill="#00b4bd"/>
  </g>
</svg>
