<svg xmlns="http://www.w3.org/2000/svg" width="15.13" height="20.718" viewBox="0 0 15.13 20.718">
  <path id="micrphone_1_" data-name="micrphone (1)" d="M12.627,16.085a3.258,3.258,0,0,0,3.26-3.271L15.9,6.271a3.271,3.271,0,0,0-6.542,0v6.542A3.267,3.267,0,0,0,12.627,16.085Zm6.63-3.271a.906.906,0,0,0-.905.774,5.717,5.717,0,0,1-5.725,4.787A5.708,5.708,0,0,1,6.9,13.588.915.915,0,0,0,6,12.814a.935.935,0,0,0-.927,1.058,7.7,7.7,0,0,0,6.466,6.27v2.486a1.09,1.09,0,1,0,2.181,0V20.141a7.687,7.687,0,0,0,6.466-6.27.935.935,0,0,0-.927-1.058Z" transform="translate(-5.062 -3)" fill="#aeaeae"/>
</svg>
