<svg xmlns="http://www.w3.org/2000/svg" width="60" height="60" viewBox="0 0 60 60">
  <g id="mute" transform="translate(-90 -445)">
    <path id="Path_65771" data-name="Path 65771" d="M30,0A30,30,0,1,1,0,30,30,30,0,0,1,30,0Z" transform="translate(90 445)" fill="#f5f5f5"/>
    <path id="mute-2" data-name="mute" d="M68.882,49.316l-1.428-1.426-.514-.512-.252-.253-7.517-7.5v.019l-5.951-5.95-1.3,1.29,7.25,7.24v1.547a3.7,3.7,0,0,0,5.017,3.444l1.738,1.732a6.759,6.759,0,0,1-3.047.744,6.4,6.4,0,0,1-6.514-6.257h-2.09a8.54,8.54,0,0,0,7.365,8.212v4.4h2.469v-4.4a8.909,8.909,0,0,0,3.307-1.214l5.114,5.1,1.29-1.288L72,52.431,68.878,49.32,72,52.431l-3.121-3.114Zm-2.305-5.548V35.688a3.7,3.7,0,0,0-7.406,0v1.355l7.359,7.351A3.586,3.586,0,0,0,66.577,43.769Zm4.907-.337h-2.09a6.067,6.067,0,0,1-.8,3.016l1.48,1.477A7.913,7.913,0,0,0,71.484,43.431Zm2.338,10.81L72,52.431l1.817,1.813Z" transform="translate(57.078 431)" fill="#00b4bd"/>
  </g>
</svg>
