<svg id="not_like" xmlns="http://www.w3.org/2000/svg" width="18" height="18" viewBox="0 0 18 18">
  <path id="Path_66352" data-name="Path 66352" d="M0,0H18V18H0Z" fill="none"/>
  <path id="Path_66353" data-name="Path 66353" d="M10.822,6.119h4.622a1.467,1.467,0,0,1,1.444,1.489V9.175a1.529,1.529,0,0,1-.108.567l-2.235,5.6a.722.722,0,0,1-.668.461H1.722A.734.734,0,0,1,1,15.053V7.608a.734.734,0,0,1,.722-.745H4.237a.716.716,0,0,0,.59-.315L8.765.8A.355.355,0,0,1,9.222.678l1.31.675a1.881,1.881,0,0,1,.943,2.124ZM5.333,8.046v6.263h8.06l2.051-5.134V7.608H10.822a1.429,1.429,0,0,1-1.14-.575,1.525,1.525,0,0,1-.26-1.281l.652-2.642a.376.376,0,0,0-.189-.425L9.409,2.44l-3.4,4.967a2.2,2.2,0,0,1-.674.639Zm-1.444.307H2.444v5.956H3.889Z" transform="translate(0.056 0.035)" fill="#707070"/>
</svg>
