<svg xmlns="http://www.w3.org/2000/svg" width="15.962" height="16" viewBox="0 0 15.962 16">
  <path id="phone" d="M14.076,12.04l-1.335.752a.842.842,0,0,1-1.009-.139L7.276,8.2a.843.843,0,0,1-.139-1.009L7.89,5.854a1.263,1.263,0,0,0-.207-1.513l-2-2a1.263,1.263,0,0,0-1.786,0l-.909.908A3.368,3.368,0,0,0,2.48,7.364l.456.76a26.406,26.406,0,0,0,9.542,9.341l.09.052a3.375,3.375,0,0,0,4.075-.531l.949-.949a1.263,1.263,0,0,0,0-1.786l-2-2a1.263,1.263,0,0,0-1.514-.208Z" transform="translate(-2 -1.97)" fill="#00b4bd"/>
</svg>
