<svg xmlns="http://www.w3.org/2000/svg" width="162.034" height="136.284" viewBox="0 0 162.034 136.284">
  <g id="privacy_policy" transform="translate(-56.11 -101.405)">
    <g id="freepik--Shadow--inject-116" transform="translate(56.11 228.229)">
      <ellipse id="Ellipse_503" data-name="Ellipse 503" cx="81.017" cy="4.73" rx="81.017" ry="4.73" transform="translate(0 0)" fill="#01a2ab"/>
    </g>
    <g id="freepik--Shield--inject-116" transform="translate(135.226 111.497)">
      <path id="Path_65971" data-name="Path 65971" d="M245.454,132.766c.568,7.1,8.775,16.33,11.4,19.121a1.1,1.1,0,0,0,1.613,0c2.632-2.791,10.831-12.022,11.4-19.121a1.124,1.124,0,0,0-.581-1.086l-11.1-5.988a1.1,1.1,0,0,0-1.053,0l-11.1,5.988A1.132,1.132,0,0,0,245.454,132.766Z" transform="translate(-245.45 -125.557)" fill="#00b4bd"/>
      <path id="Path_65972" data-name="Path 65972" d="M259.639,151.892c-3.343-3.761-8.19-10.083-9.347-15.114a1.124,1.124,0,0,1,.535-1.22l9.084-5.223a1.116,1.116,0,0,1,1.107,0l9.084,5.206a1.12,1.12,0,0,1,.526,1.254c-1.153,5.039-5.984,11.336-9.343,15.114a1.1,1.1,0,0,1-1.646-.017Z" transform="translate(-248.253 -128.253)" fill="#00b4bd" opacity="0.3"/>
      <path id="Path_65973" data-name="Path 65973" d="M259.639,151.892c-3.343-3.761-8.19-10.083-9.347-15.114a1.124,1.124,0,0,1,.535-1.22l9.084-5.223a1.116,1.116,0,0,1,1.107,0l9.084,5.206a1.12,1.12,0,0,1,.526,1.254c-1.153,5.039-5.984,11.336-9.343,15.114a1.1,1.1,0,0,1-1.646-.017Z" transform="translate(-248.253 -128.253)" fill="#fff" opacity="0.3"/>
      <path id="Path_65974" data-name="Path 65974" d="M266.545,152.793a.623.623,0,0,1-.443-.184l-3.1-3.109a.627.627,0,0,1,.886-.886l2.653,2.649,6.268-6.247a.631.631,0,0,1,.886,0,.623.623,0,0,1,0,.886l-6.686,6.686a.639.639,0,0,1-.468.2Z" transform="translate(-255.572 -136.78)" fill="#fff"/>
    </g>
    <g id="freepik--Vault--inject-116" transform="translate(109.549 144.412)">
      <rect id="Rectangle_5681" data-name="Rectangle 5681" width="67.972" height="86.035" rx="12" transform="translate(0 0)" fill="#263238"/>
      <rect id="Rectangle_5682" data-name="Rectangle 5682" width="67.972" height="86.035" rx="12" transform="translate(3.903 0)" fill="#00b4bd"/>
      <rect id="Rectangle_5683" data-name="Rectangle 5683" width="6.268" height="1.534" rx="0.75" transform="translate(9.824 86.04)" fill="#263238"/>
      <rect id="Rectangle_5684" data-name="Rectangle 5684" width="6.268" height="1.534" rx="0.75" transform="translate(59.682 86.04)" fill="#263238"/>
      <path id="Path_66403" data-name="Path 66403" d="M12,0H55.972a12,12,0,0,1,12,12V74.035a12,12,0,0,1-12,12H12a12,12,0,0,1-12-12V12A12,12,0,0,1,12,0Z" transform="translate(3.903 0)" opacity="0.34"/>
      <path id="Path_65975" data-name="Path 65975" d="M263.3,294.272H219a1.918,1.918,0,0,1-1.914-1.914V230A1.918,1.918,0,0,1,219,228.08H263.3A1.918,1.918,0,0,1,265.21,230v62.36a1.918,1.918,0,0,1-1.914,1.914ZM219,228.289A1.709,1.709,0,0,0,217.3,230v62.36a1.7,1.7,0,0,0,1.7,1.7H263.3a1.7,1.7,0,0,0,1.7-1.7V230a1.709,1.709,0,0,0-1.7-1.709Z" transform="translate(-203.263 -218.156)" fill="#e6e6e6" opacity="0.4"/>
      <rect id="Rectangle_5686" data-name="Rectangle 5686" width="64.311" height="46.244" rx="2.33" transform="translate(61.01 10.864) rotate(90)" fill="#00b4bd"/>
      <rect id="Rectangle_5687" data-name="Rectangle 5687" width="64.311" height="46.244" rx="2.33" transform="translate(61.01 10.864) rotate(90)" fill="#fff" opacity="0.1"/>
      <rect id="Rectangle_5688" data-name="Rectangle 5688" width="0.418" height="3.527" transform="translate(72.915 17.738)" fill="#00b4bd"/>
      <rect id="Rectangle_5689" data-name="Rectangle 5689" width="0.418" height="9.009" transform="translate(72.915 5.014)" fill="#00b4bd"/>
      <circle id="Ellipse_504" data-name="Ellipse 504" cx="14.249" cy="14.249" r="14.249" transform="translate(23.638 29.989)" opacity="0.1"/>
      <circle id="Ellipse_505" data-name="Ellipse 505" cx="3.481" cy="3.481" r="3.481" transform="translate(34.406 16.116)" fill="#00b4bd"/>
      <circle id="Ellipse_506" data-name="Ellipse 506" cx="3.481" cy="3.481" r="3.481" transform="translate(34.385 16.108)" fill="#fff" opacity="0.6"/>
      <path id="Path_65976" data-name="Path 65976" d="M270.839,250.149a2.749,2.749,0,1,1,2.749-2.749A2.749,2.749,0,0,1,270.839,250.149Zm0-5.29a2.541,2.541,0,1,0,2.541,2.541A2.541,2.541,0,0,0,270.839,244.859Z" transform="translate(-232.953 -227.802)" fill="#00b4bd"/>
      <rect id="Rectangle_5690" data-name="Rectangle 5690" width="2.787" height="9.719" rx="1.394" transform="translate(12.54 19.054)" fill="#00b4bd"/>
      <rect id="Rectangle_5691" data-name="Rectangle 5691" width="2.787" height="9.719" rx="1.394" transform="translate(12.54 19.054)" fill="#fff" opacity="0.6"/>
      <rect id="Rectangle_5692" data-name="Rectangle 5692" width="2.787" height="9.719" rx="1.394" transform="translate(12.54 57.266)" fill="#00b4bd"/>
      <rect id="Rectangle_5693" data-name="Rectangle 5693" width="2.787" height="9.719" rx="1.394" transform="translate(12.54 57.266)" fill="#fff" opacity="0.6"/>
      <circle id="Ellipse_507" data-name="Ellipse 507" cx="14.249" cy="14.249" r="14.249" transform="translate(23.638 28.773)" fill="#00b4bd"/>
      <circle id="Ellipse_508" data-name="Ellipse 508" cx="14.249" cy="14.249" r="14.249" transform="translate(23.638 28.773)" fill="#fff" opacity="0.6"/>
      <rect id="Rectangle_5694" data-name="Rectangle 5694" width="0.836" height="20.784" transform="translate(30.247 35.967) rotate(-45)" fill="#00b4bd"/>
      <rect id="Rectangle_5695" data-name="Rectangle 5695" width="20.784" height="0.836" transform="translate(30.247 50.073) rotate(-45)" fill="#00b4bd"/>
      <rect id="Rectangle_5696" data-name="Rectangle 5696" width="20.784" height="0.836" transform="translate(30.199 50.025) rotate(-45)" opacity="0.2"/>
      <rect id="Rectangle_5697" data-name="Rectangle 5697" width="0.836" height="20.784" transform="translate(30.202 35.923) rotate(-45)" opacity="0.2"/>
      <path id="Path_65977" data-name="Path 65977" d="M259.492,302.916A10.818,10.818,0,1,1,270.306,292.1,10.818,10.818,0,0,1,259.492,302.916Zm0-20.8a9.982,9.982,0,1,0,9.978,9.981,9.982,9.982,0,0,0-9.978-9.981Z" transform="translate(-221.648 -249.126)" fill="#00b4bd"/>
      <circle id="Ellipse_509" data-name="Ellipse 509" cx="4.525" cy="4.525" r="4.525" transform="translate(31.442 42.972) rotate(-45)" fill="#00b4bd"/>
      <path id="Path_65978" data-name="Path 65978" d="M259.492,302.916A10.818,10.818,0,1,1,270.306,292.1,10.818,10.818,0,0,1,259.492,302.916Zm0-20.8a9.982,9.982,0,1,0,9.978,9.981,9.982,9.982,0,0,0-9.978-9.981Z" transform="translate(-221.648 -249.126)" opacity="0.2"/>
      <circle id="Ellipse_510" data-name="Ellipse 510" cx="4.525" cy="4.525" r="4.525" transform="translate(31.442 42.972) rotate(-45)" opacity="0.2"/>
    </g>
    <g id="freepik--Character--inject-116" transform="translate(86.615 101.405)">
      <path id="Path_65979" data-name="Path 65979" d="M184.94,162.76c1.007,2.336,2.047,4.7,3.1,7.028s2.131,4.651,3.284,6.869c.3.543.581,1.107.89,1.621l.226.393.117.2a.191.191,0,0,0-.042-.042c-.05-.029,0,.029.1.1a3.924,3.924,0,0,0,1.228.418,15.343,15.343,0,0,0,1.671.217c1.183.079,2.432.079,3.685.042l1.9-.079,1.889-.125.489,2.273a32.681,32.681,0,0,1-7.973,1.6,14.913,14.913,0,0,1-2.2-.021,7.848,7.848,0,0,1-2.507-.593,4.379,4.379,0,0,1-1.458-1.036A3.76,3.76,0,0,1,189,181.2l-.146-.217-.284-.418c-.4-.577-.731-1.153-1.091-1.734-1.354-2.319-2.566-4.667-3.7-7.037s-2.194-4.759-3.188-7.212Z" transform="translate(-159.081 -137.123)" fill="#ffb573"/>
      <path id="Path_65980" data-name="Path 65980" d="M177.569,158.932c-.949,2.775,4.626,10.935,4.626,10.935l5.34-2.958a62.643,62.643,0,0,0-3.2-7.438C182.445,155.941,178.609,155.886,177.569,158.932Z" transform="translate(-157.259 -133.613)" fill="#00b4bd"/>
      <path id="Path_65981" data-name="Path 65981" d="M177.569,158.932c-.949,2.775,4.626,10.935,4.626,10.935l5.34-2.958a62.643,62.643,0,0,0-3.2-7.438C182.445,155.941,178.609,155.886,177.569,158.932Z" transform="translate(-157.259 -133.613)" fill="#fff" opacity="0.5"/>
      <path id="Path_65982" data-name="Path 65982" d="M177.492,162.523c1.2-.572,2.574-.092,4.02,2.2a25.1,25.1,0,0,1,2.82,7.2l-2.135,1.183S177.049,165.57,177.492,162.523Z" transform="translate(-157.262 -136.857)" fill="#00b4bd"/>
      <path id="Path_65983" data-name="Path 65983" d="M177.492,162.523c1.2-.572,2.574-.092,4.02,2.2a25.1,25.1,0,0,1,2.82,7.2l-2.135,1.183S177.049,165.57,177.492,162.523Z" transform="translate(-157.262 -136.857)" fill="#fff" opacity="0.4"/>
      <path id="Path_65984" data-name="Path 65984" d="M162.162,155.581s3.978,9.356,1.107,26.776H146.705c-.2-2.545.965-14.951-1.905-26.935a42.3,42.3,0,0,1,5.516-.7,61.794,61.794,0,0,1,7.041,0A31.943,31.943,0,0,1,162.162,155.581Z" transform="translate(-138.246 -132.384)" fill="#00b4bd"/>
      <path id="Path_65985" data-name="Path 65985" d="M162.162,155.581s3.978,9.356,1.107,26.776H146.705c-.2-2.545.965-14.951-1.905-26.935a42.3,42.3,0,0,1,5.516-.7,61.794,61.794,0,0,1,7.041,0A31.943,31.943,0,0,1,162.162,155.581Z" transform="translate(-138.246 -132.384)" fill="#fff" opacity="0.5"/>
      <path id="Path_65986" data-name="Path 65986" d="M148.881,161.076c.343,1.972-.113,6.686-1.805,12.143a79.677,79.677,0,0,0-1.625-13.91v-.025C146.536,159.174,148.55,159.225,148.881,161.076Z" transform="translate(-138.625 -135.079)" fill="#00b4bd"/>
      <path id="Path_65987" data-name="Path 65987" d="M148.881,161.076c.343,1.972-.113,6.686-1.805,12.143a79.677,79.677,0,0,0-1.625-13.91v-.025C146.536,159.174,148.55,159.225,148.881,161.076Z" transform="translate(-138.625 -135.079)" fill="#fff" opacity="0.4"/>
      <path id="Path_65988" data-name="Path 65988" d="M135.31,391.848l2.457,2.2,4.676-4.868-2.457-2.2Z" transform="translate(-132.722 -267.652)" fill="#ffb573"/>
      <path id="Path_65989" data-name="Path 65989" d="M134.838,398.914l-2.983-2a.276.276,0,0,0-.343,0l-2.281,2.3a.46.46,0,0,0,.109.7,31.516,31.516,0,0,1,4.367,3.794c1.254,1.425,1.93,1.63,4.855,1.63,1.354,0,2.118-1.141,1.567-1.316-4.872-1.542-3.568-2.215-4.755-4.475a1.626,1.626,0,0,0-.535-.635Z" transform="translate(-129.116 -273.402)" fill="#263238"/>
      <path id="Path_65990" data-name="Path 65990" d="M145.594,389.178l-2.407,2.511-2.457-2.2,2.407-2.507Z" transform="translate(-135.877 -267.652)" fill="#df9350"/>
      <path id="Path_65991" data-name="Path 65991" d="M156.119,392.41h3.1l-.209,3.7h-3.1Z" transform="translate(-144.714 -270.813)" fill="#5e2b2b"/>
      <path id="Path_65992" data-name="Path 65992" d="M160.876,220.983s3.263,22.589,4.375,34.882c.894,9.865-20.437,39.278-20.437,39.278l-4.124-3.882s15.577-26.371,14.378-37.352c-1.157-10.634-5.1-32.939-5.1-32.939Z" transform="translate(-135.854 -171.01)" fill="#00b4bd"/>
      <path id="Path_65993" data-name="Path 65993" d="M160.876,220.983s3.263,22.589,4.375,34.882c.894,9.865-20.437,39.278-20.437,39.278l-4.124-3.882s15.577-26.371,14.378-37.352c-1.157-10.634-5.1-32.939-5.1-32.939Z" transform="translate(-135.854 -171.01)" opacity="0.5"/>
      <path id="Path_65994" data-name="Path 65994" d="M155.44,399.58h3.1l.4-7.17h-3.1Z" transform="translate(-144.44 -270.813)" fill="#ffb573"/>
      <path id="Path_65995" data-name="Path 65995" d="M157.842,408.72h-3.481a.221.221,0,0,0-.23.209l-.171,2.754a.547.547,0,0,0,.543.552c1.212-.021,1.793-.092,3.343-.092.94,0,4.943.1,6.247.1s1.254-1.287.71-1.4c-2.47-.522-5.532-1.254-6.41-1.93A.874.874,0,0,0,157.842,408.72Z" transform="translate(-143.579 -280.308)" fill="#263238"/>
      <path id="Path_65996" data-name="Path 65996" d="M232.321,201.348l2.846-1.128.694,2.925s-3.247.969-3.761.033Z" transform="translate(-189.068 -158.93)" fill="#ffb573"/>
      <path id="Path_65997" data-name="Path 65997" d="M241.851,200.809l.836,1.6-2.553.727-.694-2.917Z" transform="translate(-193.341 -158.93)" fill="#ffb573"/>
      <path id="Path_65998" data-name="Path 65998" d="M165.156,154.761l-.677-.071a61.8,61.8,0,0,0-7.041,0l-.418.025.038.113c.033.088.811,2.156,5.269,2.156,1.943,0,2.958-.322,3.192-1.02A1.283,1.283,0,0,0,165.156,154.761Z" transform="translate(-145.36 -132.366)" fill="#e6e6e6"/>
      <path id="Path_65999" data-name="Path 65999" d="M158.418,135.88c.522,2.265,1.111,6.418-.418,7.939,0,0,.66,1.876,4.872,1.876,4.63,0,2.169-1.876,2.169-1.876-2.549-.6-2.545-2.478-2.169-4.237Z" transform="translate(-145.931 -121.475)" fill="#ffb573"/>
      <path id="Path_66000" data-name="Path 66000" d="M163.284,139.49l2.637,2.181a7.247,7.247,0,0,0-.175,1.254,2.818,2.818,0,0,1-2.461-3.435Z" transform="translate(-148.971 -123.576)" fill="#5e2b2b"/>
      <path id="Path_66001" data-name="Path 66001" d="M172.054,119.421c1.408.911,1.609,5.29-.451,5.917S169.388,117.7,172.054,119.421Z" transform="translate(-152.948 -111.755)" fill="#263238"/>
      <path id="Path_66002" data-name="Path 66002" d="M156.357,122.722c.944,2.925,1.345,4.692,3.251,5.892a4.007,4.007,0,0,0,6.172-3.5c-.038-2.812-1.575-7.141-4.814-7.684a4.057,4.057,0,0,0-4.609,5.294Z" transform="translate(-144.848 -110.69)" fill="#ffb573"/>
      <path id="Path_66003" data-name="Path 66003" d="M147.39,110.683c1.011,1.834,3.552,6.013,4.772,5.6s1.224-3.761-.343-5.879c0,0,12.414,1.254,12.665-5.8.255-7.216-5.725-.234-10.985,1.784C147.775,108.6,145.013,106.367,147.39,110.683Z" transform="translate(-139.257 -101.405)" fill="#263238"/>
      <path id="Path_66004" data-name="Path 66004" d="M149.733,108.16a.1.1,0,0,1,0-.2c.188-.042.393-.079.614-.121a19.827,19.827,0,0,0,4.83-1.437,28.056,28.056,0,0,0,4.663-2.967,31.077,31.077,0,0,1,2.883-1.956.109.109,0,0,1,.142.042.1.1,0,0,1-.042.142,30.693,30.693,0,0,0-2.862,1.943,28.342,28.342,0,0,1-4.7,2.988,19.957,19.957,0,0,1-4.872,1.45c-.221.042-.418.079-.614.121Z" transform="translate(-141.07 -101.438)" fill="#263238"/>
      <path id="Path_66005" data-name="Path 66005" d="M154.757,135.609a3.059,3.059,0,0,0,2.089.865c1.036,0,1.254-.978.7-1.8-.493-.735-1.621-1.621-2.532-1.224A1.274,1.274,0,0,0,154.757,135.609Z" transform="translate(-143.766 -120.005)" fill="#ffb573"/>
      <path id="Path_66006" data-name="Path 66006" d="M159.91,265.483c-.6-5.478-1.935-14.061-3.084-21.089.6-1.178,2.29-3.564,2.29-3.564,1.513,5.227,4.8,24.933.109,51.546-4.889,7.881-9.569,14.341-9.569,14.341L149,296.555C153.534,288.055,160.742,273.076,159.91,265.483Z" transform="translate(-140.691 -182.571)" opacity="0.2"/>
      <path id="Path_66007" data-name="Path 66007" d="M168.017,129.1c.063.242.242.418.418.376s.238-.263.175-.506-.242-.418-.418-.372S167.954,128.859,168.017,129.1Z" transform="translate(-151.748 -117.232)" fill="#263238"/>
      <path id="Path_66008" data-name="Path 66008" d="M174.616,127.653c.063.242.242.418.418.376s.238-.259.176-.5-.238-.418-.418-.376S174.553,127.41,174.616,127.653Z" transform="translate(-155.59 -116.39)" fill="#263238"/>
      <path id="Path_66009" data-name="Path 66009" d="M172.63,129.11a9.43,9.43,0,0,0,1.692,1.818,1.429,1.429,0,0,1-1.111.472Z" transform="translate(-154.448 -117.533)" fill="#ffb573"/>
      <path id="Path_66010" data-name="Path 66010" d="M169.53,135.828a2.123,2.123,0,0,1-1.391-.5.072.072,0,1,1,.1-.1,2.089,2.089,0,0,0,1.772.418.073.073,0,0,1,.033.142A2.312,2.312,0,0,1,169.53,135.828Z" transform="translate(-151.82 -121.08)" fill="#263238"/>
      <path id="Path_66011" data-name="Path 66011" d="M165.225,126.707a.146.146,0,0,1-.059,0,.142.142,0,0,1-.075-.192,1.412,1.412,0,0,1,1.02-.836.155.155,0,0,1,.167.125.146.146,0,0,1-.125.167,1.124,1.124,0,0,0-.794.673A.142.142,0,0,1,165.225,126.707Z" transform="translate(-150.051 -115.536)" fill="#263238"/>
      <path id="Path_66012" data-name="Path 66012" d="M175.139,124.354a.142.142,0,0,1-.113-.054,1.254,1.254,0,0,0-.978-.468.147.147,0,1,1-.025-.292,1.538,1.538,0,0,1,1.228.572.15.15,0,0,1-.021.209A.146.146,0,0,1,175.139,124.354Z" transform="translate(-155.181 -114.29)" fill="#263238"/>
      <path id="Path_66013" data-name="Path 66013" d="M140.126,176.555a11.925,11.925,0,0,1-2.382-1.107,2.608,2.608,0,0,1-.451-.364c.192-.9.443-1.8.715-2.708s.606-1.834.953-2.749.715-1.826,1.1-2.729c.192-.451.389-.9.589-1.35l.6-1.3-4.179-2.139c-.276.522-.5.982-.727,1.479s-.418.978-.643,1.471q-.618,1.488-1.128,3.013a32.592,32.592,0,0,0-1.483,6.393v.33a3.244,3.244,0,0,0,0,.451,3.788,3.788,0,0,0,.159.894,3.965,3.965,0,0,0,.786,1.391,5.992,5.992,0,0,0,1.839,1.358,13.564,13.564,0,0,0,3.364,1.078,29.391,29.391,0,0,0,6.431.5l.192-2.319a51.489,51.489,0,0,1-5.733-1.6Z" transform="translate(-131.424 -136.744)" fill="#ffb573"/>
      <path id="Path_66014" data-name="Path 66014" d="M164.639,408.918a3.974,3.974,0,0,1-.836-.109.088.088,0,0,1-.054-.054.075.075,0,0,1,.029-.071c.1-.071.978-.669,1.354-.518a.267.267,0,0,1,.167.2.418.418,0,0,1-.092.389.836.836,0,0,1-.568.163ZM164,408.71c.556.109.969.092,1.116-.05a.276.276,0,0,0,.05-.263.134.134,0,0,0-.079-.1C164.869,408.208,164.317,408.5,164,408.71Z" transform="translate(-149.277 -279.972)" fill="#00b4bd"/>
      <path id="Path_66015" data-name="Path 66015" d="M163.831,407.809a.05.05,0,0,1-.033,0,.067.067,0,0,1-.038-.054c0-.038-.071-.928.242-1.228a.359.359,0,0,1,.3-.1.276.276,0,0,1,.259.217c.071.338-.389.982-.7,1.166Zm.418-1.254a.213.213,0,0,0-.155.063,1.621,1.621,0,0,0-.2.99c.255-.217.585-.71.535-.944,0-.046-.033-.1-.142-.109Z" transform="translate(-149.28 -278.97)" fill="#00b4bd"/>
      <path id="Path_66016" data-name="Path 66016" d="M145.416,404.754a3.857,3.857,0,0,1-1.546-.6.063.063,0,0,1-.033-.075.075.075,0,0,1,.063-.054c.167,0,1.634-.109,1.91.226a.213.213,0,0,1,.046.2.368.368,0,0,1-.217.259A.632.632,0,0,1,145.416,404.754Zm-1.274-.6c.673.372,1.2.535,1.442.418a.23.23,0,0,0,.138-.163.084.084,0,0,0,0-.084A3.469,3.469,0,0,0,144.141,404.152Z" transform="translate(-137.684 -277.566)" fill="#00b4bd"/>
      <path id="Path_66017" data-name="Path 66017" d="M143.908,402.994a.071.071,0,0,1-.058-.033.075.075,0,0,1,0-.067c.025-.05.581-1.183,1.3-.836.2.1.213.209.2.288-.071.339-1,.643-1.425.656Zm.965-.865c-.384,0-.715.489-.836.715.447-.054,1.132-.334,1.174-.535,0-.042-.033-.088-.125-.134A.456.456,0,0,0,144.873,402.129Z" transform="translate(-137.688 -276.392)" fill="#00b4bd"/>
      <path id="Path_66018" data-name="Path 66018" d="M162.178,199.448l2.545-.7.347,3.213s-2.507.752-3.13-.564Z" transform="translate(-148.224 -158.074)" fill="#ffb573"/>
      <path id="Path_66019" data-name="Path 66019" d="M162.39,197.64a3.343,3.343,0,0,0,.882-2.11l.652.355a4.983,4.983,0,0,1-.125,1.855C163.543,198.154,162.39,197.64,162.39,197.64Z" transform="translate(-148.486 -156.2)" fill="#ffb573"/>
      <path id="Path_66020" data-name="Path 66020" d="M169.785,199.068l-.155,2.9h-.689l-.351-3.213Z" transform="translate(-152.096 -158.074)" fill="#ffb573"/>
      <path id="Path_66021" data-name="Path 66021" d="M140.1,385.778l4.626,4.354,1.492-1.6-5.294-4.822Z" transform="translate(-135.51 -265.749)" fill="#00b4bd"/>
      <path id="Path_66022" data-name="Path 66022" d="M140.1,385.778l4.626,4.354,1.492-1.6-5.294-4.822Z" transform="translate(-135.51 -265.749)" opacity="0.1"/>
      <path id="Path_66023" data-name="Path 66023" d="M160.013,220.994s.292,23.671-.209,32.542c-.547,9.711-3.305,41.89-3.305,41.89h-5.674s.171-31.393-.171-41.008c-.372-10.446-1.333-33.428-1.333-33.428Z" transform="translate(-140.878 -171.021)" fill="#00b4bd"/>
      <path id="Path_66024" data-name="Path 66024" d="M160.013,220.994s.292,23.671-.209,32.542c-.547,9.711-3.305,41.89-3.305,41.89h-5.674s.171-31.393-.171-41.008c-.372-10.446-1.333-33.428-1.333-33.428Z" transform="translate(-140.878 -171.021)" opacity="0.5"/>
      <path id="Path_66025" data-name="Path 66025" d="M151.967,396.126h6.13l.338-2.156-6.765.338Z" transform="translate(-142.246 -271.721)" fill="#00b4bd"/>
      <path id="Path_66026" data-name="Path 66026" d="M151.967,396.126h6.13l.338-2.156-6.765.338Z" transform="translate(-142.246 -271.721)" opacity="0.1"/>
      <path id="Path_66027" data-name="Path 66027" d="M136.551,156.46c-2.925.418-5.921,11.161-5.921,11.161l7.049,2.683s1.772-4.6,2.983-8.2C141.933,158.345,139.681,156,136.551,156.46Z" transform="translate(-129.997 -133.422)" fill="#00b4bd"/>
      <path id="Path_66028" data-name="Path 66028" d="M136.551,156.46c-2.925.418-5.921,11.161-5.921,11.161l7.049,2.683s1.772-4.6,2.983-8.2C141.933,158.345,139.681,156,136.551,156.46Z" transform="translate(-129.997 -133.422)" fill="#fff" opacity="0.5"/>
    </g>
  </g>
</svg>
