<svg xmlns="http://www.w3.org/2000/svg" width="15.856" height="16.286" viewBox="0 0 15.856 16.286">
  <path id="housing" d="M47.422,33.133l-6.607-6.007a1.316,1.316,0,0,0-1.778,0l-6.606,6.006a1.324,1.324,0,0,0-.433.978v7.605a1.36,1.36,0,0,0,.331.905,1.314,1.314,0,0,0,.99.446h3.961a.661.661,0,0,0,.661-.661V38.443a.661.661,0,0,1,.661-.661h2.643a.661.661,0,0,1,.661.661v3.964a.661.661,0,0,0,.661.661h3.969a1.272,1.272,0,0,0,.622-.153,1.328,1.328,0,0,0,.7-1.168V34.111A1.324,1.324,0,0,0,47.422,33.133Z" transform="translate(-31.999 -26.781)" fill="#00b4bd"/>
</svg>
