<svg xmlns="http://www.w3.org/2000/svg" width="14.871" height="16.524" viewBox="0 0 14.871 16.524">
  <path id="events" d="M13.74,11.088H11.262a.829.829,0,0,0-.826.826v2.479a.829.829,0,0,0,.826.826H13.74a.829.829,0,0,0,.826-.826V11.914A.829.829,0,0,0,13.74,11.088Zm0-8.262v.826H7.131V2.826a.826.826,0,1,0-1.652,0v.826H4.652A1.645,1.645,0,0,0,3.008,5.3L3,16.871a1.652,1.652,0,0,0,1.652,1.652H16.219a1.657,1.657,0,0,0,1.652-1.652V5.3a1.657,1.657,0,0,0-1.652-1.652h-.826V2.826a.826.826,0,1,0-1.652,0Zm1.652,14.045H5.479a.829.829,0,0,1-.826-.826V7.783H16.219v8.262A.829.829,0,0,1,15.393,16.871Z" transform="translate(-3 -2)" fill="#00b4bd"/>
</svg>
