<svg xmlns="http://www.w3.org/2000/svg" width="7.701" height="15.402" viewBox="0 0 7.701 15.402">
  <path id="tie" d="M94.059,4685.139H91.642a1.639,1.639,0,0,0-1.557,1.147l-1.023,3.4a1.49,1.49,0,0,0,.413,1.514l2.23,2.752a1.687,1.687,0,0,0,2.292,0l2.23-2.747a1.474,1.474,0,0,0,.413-1.5l-1.023-3.421a1.639,1.639,0,0,0-1.557-1.146m1.448-2.782.27-1.55a1.575,1.575,0,0,0-1.6-1.8H91.523a1.59,1.59,0,0,0-1.6,1.82l.27,1.518a1.584,1.584,0,0,0,1.6,1.265h2.115a1.569,1.569,0,0,0,1.6-1.248" transform="translate(-89 -4679.004)" fill="#00b4bd" fill-rule="evenodd"/>
</svg>
