<svg xmlns="http://www.w3.org/2000/svg" width="31.002" height="29.428" viewBox="0 0 31.002 29.428">
  <g id="report" transform="translate(-0.499 -1.286)">
    <path id="Path_30047" data-name="Path 30047" d="M31.046,25.111,19.354,3.293a3.8,3.8,0,0,0-6.707,0h0L.954,25.111a3.805,3.805,0,0,0,3.354,5.6H27.693a3.806,3.806,0,0,0,3.353-5.6Zm-2.664,2.211a.79.79,0,0,1-.689.392H4.308A.8.8,0,0,1,3.6,26.529L15.291,4.711h0a.8.8,0,0,1,1.418,0L28.4,26.528A.791.791,0,0,1,28.382,27.322Z" fill="#e15031"/>
    <path id="Path_30048" data-name="Path 30048" d="M16,14.766a1.5,1.5,0,0,0-1.5,1.5v8.717a1.5,1.5,0,0,0,3,0V16.266A1.5,1.5,0,0,0,16,14.766ZM16,9.5A1.5,1.5,0,0,0,14.5,11v1.237a1.5,1.5,0,0,0,3,0V11A1.5,1.5,0,0,0,16,9.5Z" fill="#e15031"/>
  </g>
</svg>
