<svg xmlns="http://www.w3.org/2000/svg" width="14.766" height="15.402" viewBox="0 0 14.766 15.402">
  <path id="settings" d="M2.272,7.332a7.685,7.685,0,0,1,1.62-2.79.456.456,0,0,1,.491-.123l1.746.621a.908.908,0,0,0,1.2-.691l.333-1.817a.454.454,0,0,1,.353-.362,7.836,7.836,0,0,1,3.234,0,.454.454,0,0,1,.353.362l.333,1.818a.911.911,0,0,0,1.2.691l1.746-.621a.456.456,0,0,1,.491.123,7.687,7.687,0,0,1,1.62,2.79.452.452,0,0,1-.139.485l-1.415,1.2a.9.9,0,0,0,0,1.381l1.415,1.2a.452.452,0,0,1,.139.485,7.685,7.685,0,0,1-1.62,2.79.456.456,0,0,1-.491.123l-1.746-.621a.908.908,0,0,0-1.2.691L11.6,16.874a.454.454,0,0,1-.353.362,7.835,7.835,0,0,1-3.234,0,.454.454,0,0,1-.353-.362L7.33,15.056a.911.911,0,0,0-1.2-.691l-1.746.621a.456.456,0,0,1-.491-.123,7.684,7.684,0,0,1-1.62-2.79.452.452,0,0,1,.138-.485l1.415-1.2a.9.9,0,0,0,0-1.381l-1.415-1.2A.452.452,0,0,1,2.272,7.332ZM7.386,9.7A2.247,2.247,0,1,0,9.633,7.456,2.247,2.247,0,0,0,7.386,9.7Z" transform="translate(-2.25 -2.002)" fill="#00b4bd"/>
</svg>
