<svg xmlns="http://www.w3.org/2000/svg" xmlns:xlink="http://www.w3.org/1999/xlink" width="331.201" height="515.676" viewBox="0 0 331.201 515.676">
  <defs>
    <linearGradient id="linear-gradient" x1="-1.15" y1="1.315" x2="-1.15" y2="1.313" gradientUnits="objectBoundingBox">
      <stop offset="0" stop-color="#21212c"/>
      <stop offset="1" stop-color="#141314"/>
    </linearGradient>
  </defs>
  <g id="signup_shape" transform="translate(-382.281 -403.334)">
    <g id="Group_29869" data-name="Group 29869">
      <path id="shape01-2" d="M450.491,406.4h.09l.484.213a50.413,50.413,0,0,1,4.919,2.169l224.987,99.2s.517.313,1.421.917a50.813,50.813,0,0,1,31.09,46.831V868.21a50.8,50.8,0,0,1-50.8,50.8h-229.6a50.8,50.8,0,0,1-50.8-50.8V454.043A50.833,50.833,0,0,1,450.491,406.4Z" fill="url(#linear-gradient)"/>
    </g>
    <path id="shape02" d="M437.024,919.007c-28.085-.035-50.825-22.559-50.79-50.309V558.257a50.314,50.314,0,0,1,31.085-46.383c.9-.6,1.417-.908,1.417-.908l224.971-98.25a51,51,0,0,1,4.889-2.135l.5-.219h.093c26.365-9.49,55.524,3.935,65.128,29.985a49.674,49.674,0,0,1,3.069,17.292V868.7c.034,27.75-22.705,50.274-50.79,50.309Z" transform="translate(-3.953)" fill="#2d2d37"/>
  </g>
</svg>
