<svg xmlns="http://www.w3.org/2000/svg" width="60" height="60" viewBox="0 0 60 60">
  <g id="speaker_notselected" transform="translate(-225 -520)">
    <circle id="Ellipse_38" data-name="Ellipse 38" cx="30" cy="30" r="30" transform="translate(225 520)" fill="#f5f5f5"/>
    <path id="speaker" d="M15.413,2.079a1,1,0,0,1,.6.753l.014.17v22.04a1,1,0,0,1-1.572.823l-.131-.109L8.458,20H5.005A3.006,3.006,0,0,1,2.013,17.28L2,16.991V11A3.006,3.006,0,0,1,4.716,8.01L5.005,8H8.46l5.864-5.712A1,1,0,0,1,15.413,2.079Zm6.1,2.043.173.118.2.169c.126.113.3.277.506.491A13.189,13.189,0,0,1,23.88,21.272a12.994,12.994,0,0,1-1.5,1.875l-.283.282-.374.339-.066.054a1,1,0,0,1-1.379-1.443l.259-.235c.093-.084.233-.214.4-.39A11.177,11.177,0,0,0,22.205,7.881a11.21,11.21,0,0,0-1.083-1.4l-.339-.353-.369-.339a1,1,0,0,1,1.1-1.667Zm-2,4.007.2.14.268.252.108.113A6.77,6.77,0,0,1,20.9,9.717a8.183,8.183,0,0,1,1.149,4.3,8.2,8.2,0,0,1-1.149,4.3,6.788,6.788,0,0,1-.811,1.085l-.2.209-.141.13-.08.068-.127.058a1.078,1.078,0,0,1-1.281-.215,1,1,0,0,1,.022-1.278l.269-.259.069-.073a4.783,4.783,0,0,0,.569-.764,6.2,6.2,0,0,0,.858-3.266,6.183,6.183,0,0,0-.858-3.261,4.947,4.947,0,0,0-.447-.623l-.191-.21-.137-.13a1,1,0,0,1,1.1-1.665Z" transform="translate(241 536)" fill="#00b4bd"/>
  </g>
</svg>
