<svg xmlns="http://www.w3.org/2000/svg" width="156.365" height="136.284" viewBox="0 0 156.365 136.284">
  <g id="terms_conditons" data-name="terms&amp;conditons" transform="translate(-56.11 -89.58)">
    <g id="freepik--Shadow--inject-6" transform="translate(56.11 216.735)">
      <ellipse id="freepik--path--inject-6" cx="78.183" cy="4.565" rx="78.183" ry="4.565" transform="translate(0 0)" fill="#01a2ab"/>
    </g>
    <g id="freepik--Survey--inject-6" transform="translate(77.054 89.58)">
      <path id="Path_66029" data-name="Path 66029" d="M182.567,101.45H108.05l5.79,101.481h74.513Z" transform="translate(-108.05 -96.664)" fill="#263238"/>
      <path id="Path_66030" data-name="Path 66030" d="M186.157,101.45H111.64l5.79,101.481h74.517Z" transform="translate(-110.192 -96.664)" fill="#00b4bd"/>
      <path id="Path_66031" data-name="Path 66031" d="M186.067,109.91H120.09l4.73,91.86H192.51Z" transform="translate(-115.235 -101.712)" opacity="0.5"/>
      <path id="Path_66032" data-name="Path 66032" d="M120.09,109.91c4.9,30.621,1.54,61.243,6.452,91.86h67.682c-4.9-30.617-1.54-61.239-6.452-91.86Z" transform="translate(-115.235 -101.712)" fill="#fff"/>
      <g id="Group_29829" data-name="Group 29829" transform="translate(12.222 34.581)" opacity="0.3">
        <path id="Path_66033" data-name="Path 66033" d="M144.832,176.481a5.835,5.835,0,0,1,5.782,5.577,5.3,5.3,0,0,1-5.347,5.52,5.782,5.782,0,0,1-5.73-5.553A5.335,5.335,0,0,1,141,178.118a5.262,5.262,0,0,1,3.831-1.613m-.04-1.165a6.391,6.391,0,0,0-6.423,6.706,6.98,6.98,0,0,0,6.915,6.706,6.452,6.452,0,0,0,6.5-6.706A7.044,7.044,0,0,0,144.792,175.34Z" transform="translate(-138.361 -175.34)" fill="#00b4bd"/>
      </g>
      <path id="Path_66034" data-name="Path 66034" d="M213.9,302.92H192.527a1.125,1.125,0,0,0-1.137,1.25h0a1.415,1.415,0,0,0,1.375,1.254h21.371a1.117,1.117,0,0,0,1.129-1.254h0a1.407,1.407,0,0,0-1.367-1.25Z" transform="translate(-157.78 -216.894)" fill="#e0e0e0"/>
      <path id="Path_66035" data-name="Path 66035" d="M224.664,289.87H191.43a1.141,1.141,0,0,0-1.157,1.25h0a1.371,1.371,0,0,0,1.347,1.254h33.218a1.141,1.141,0,0,0,1.169-1.242h0a1.367,1.367,0,0,0-1.343-1.262Z" transform="translate(-157.115 -209.106)" fill="#e0e0e0"/>
      <g id="Group_29830" data-name="Group 29830" transform="translate(12.847 56.259)" opacity="0.3">
        <path id="Path_66036" data-name="Path 66036" d="M146.439,230.269a5.75,5.75,0,0,1,5.706,5.553,5.347,5.347,0,0,1-1.488,3.907,5.282,5.282,0,0,1-3.847,1.613,5.786,5.786,0,0,1-5.742-5.552,5.339,5.339,0,0,1,5.371-5.52m0-1.169h0a6.488,6.488,0,0,0-6.524,6.706,6.988,6.988,0,0,0,6.944,6.71,6.452,6.452,0,0,0,6.472-6.71A6.94,6.94,0,0,0,146.439,229.1Z" transform="translate(-139.911 -229.1)" fill="#00b4bd"/>
      </g>
      <path id="Path_66037" data-name="Path 66037" d="M198.959,184.784H187.527a1.31,1.31,0,0,1-1.3-1.254h0a1.21,1.21,0,0,1,1.21-1.25h11.428a1.319,1.319,0,0,1,1.306,1.25h0a1.21,1.21,0,0,1-1.214,1.254Z" transform="translate(-154.704 -144.9)" fill="#e0e0e0"/>
      <path id="Path_66038" data-name="Path 66038" d="M237.134,184.784h-7.742a1.314,1.314,0,0,1-1.3-1.254h0a1.21,1.21,0,0,1,1.21-1.25h7.746a1.315,1.315,0,0,1,1.3,1.25h0a1.21,1.21,0,0,1-1.214,1.254Z" transform="translate(-179.685 -144.9)" fill="#e0e0e0"/>
      <path id="Path_66039" data-name="Path 66039" d="M218.669,197.834H187.983a1.3,1.3,0,0,1-1.294-1.254h0a1.21,1.21,0,0,1,1.21-1.25h30.682a1.3,1.3,0,0,1,1.29,1.25h0a1.21,1.21,0,0,1-1.2,1.254Z" transform="translate(-154.979 -152.688)" fill="#e0e0e0"/>
      <g id="Group_29831" data-name="Group 29831" transform="translate(13.945 77.939)" opacity="0.3">
        <path id="Path_66040" data-name="Path 66040" d="M148.938,284.034a6.113,6.113,0,0,1,5.968,5.557,5.1,5.1,0,0,1-1.254,3.9,4.924,4.924,0,0,1-3.734,1.613,6.226,6.226,0,0,1-6.089-5.553,5.032,5.032,0,0,1,1.315-3.907,5.1,5.1,0,0,1,3.794-1.613m-.056-1.165a6.129,6.129,0,0,0-6.222,6.706,7.535,7.535,0,0,0,7.371,6.706,6.006,6.006,0,0,0,6.048-6.706,7.355,7.355,0,0,0-7.194-6.706Z" transform="translate(-142.632 -282.867)" fill="#00b4bd"/>
      </g>
      <path id="Path_66041" data-name="Path 66041" d="M224.806,249.13H189.4a1.21,1.21,0,0,0-1.21,1.25h0a1.306,1.306,0,0,0,1.294,1.25h35.424a1.21,1.21,0,0,0,1.21-1.25h0a1.3,1.3,0,0,0-1.31-1.25Z" transform="translate(-155.874 -184.794)" fill="#e0e0e0"/>
      <path id="Path_66042" data-name="Path 66042" d="M216.188,236.07h-27.17a1.21,1.21,0,0,0-1.21,1.254h0a1.294,1.294,0,0,0,1.286,1.25h27.174a1.21,1.21,0,0,0,1.21-1.25h0a1.29,1.29,0,0,0-1.29-1.254Z" transform="translate(-155.647 -177.001)" fill="#e0e0e0"/>
      <path id="Path_66043" data-name="Path 66043" d="M149.342,187.941l-.476-.782a13.33,13.33,0,0,0-3.976-3.673l.565-1a15.42,15.42,0,0,1,3.9,3.371,37.615,37.615,0,0,1,7.609-7.226l.73.944a34.909,34.909,0,0,0-7.851,7.633C149.68,187.453,149.511,187.7,149.342,187.941Z" transform="translate(-130.035 -142.722)" fill="#00b4bd"/>
      <path id="Path_66044" data-name="Path 66044" d="M150.848,241.735c-.157-.262-.319-.524-.48-.782a13.546,13.546,0,0,0-3.968-3.677l.573-1a15.46,15.46,0,0,1,3.883,3.371,37.115,37.115,0,0,1,7.686-7.226l.714.944A34.16,34.16,0,0,0,151.348,241Z" transform="translate(-130.936 -174.822)" fill="#00b4bd"/>
      <path id="Path_66045" data-name="Path 66045" d="M153.878,295.661l-.532-.782a14.771,14.771,0,0,0-4.186-3.673l.524-1a16.956,16.956,0,0,1,4.069,3.367,33.3,33.3,0,0,1,7.323-7.222l.754.944a30.494,30.494,0,0,0-7.5,7.633Z" transform="translate(-132.583 -207.006)" fill="#00b4bd"/>
      <path id="Path_66046" data-name="Path 66046" d="M220.871,129q-1.065,2.323-2.181,4.641a9.98,9.98,0,0,1,5.5,8.1h5.359A15.786,15.786,0,0,0,220.871,129Z" transform="translate(-174.076 -113.105)" fill="#00b4bd"/>
      <path id="Path_66047" data-name="Path 66047" d="M173.421,142.176h5.359a8.536,8.536,0,0,1,3.726-7.811q-1.565-2.323-3.177-4.645A13.541,13.541,0,0,0,173.421,142.176Z" transform="translate(-147.042 -113.534)" fill="#263238"/>
      <path id="Path_66048" data-name="Path 66048" d="M195.378,124.539a13.2,13.2,0,0,0-7.258,2.089q1.613,2.323,3.177,4.645a8.468,8.468,0,0,1,4.7-1.379,9.778,9.778,0,0,1,4.436,1.093q1.113-2.323,2.181-4.641A15.807,15.807,0,0,0,195.378,124.539Z" transform="translate(-155.833 -110.442)" fill="#00b4bd"/>
      <path id="Path_66049" data-name="Path 66049" d="M195.378,124.539a13.2,13.2,0,0,0-7.258,2.089q1.613,2.323,3.177,4.645a8.468,8.468,0,0,1,4.7-1.379,9.778,9.778,0,0,1,4.436,1.093q1.113-2.323,2.181-4.641A15.807,15.807,0,0,0,195.378,124.539Z" transform="translate(-155.833 -110.442)" fill="#263238" opacity="0.5"/>
      <path id="Path_66050" data-name="Path 66050" d="M212.749,151.51s-5.411,2.214-5.984,2.617a1.286,1.286,0,0,0-.23,1.827,1.351,1.351,0,0,0,1.847.351C208.975,155.877,212.758,151.51,212.749,151.51Zm-5.686,4.032a.633.633,0,0,1,.113-.9.673.673,0,0,1,.911.173.633.633,0,0,1-.113.9.673.673,0,0,1-.911-.157Z" transform="translate(-166.656 -126.538)" fill="#263238"/>
      <path id="Path_66051" data-name="Path 66051" d="M232.62,142.349a1.718,1.718,0,0,1-1.742,1.9,2.117,2.117,0,0,1-2.065-1.9,1.706,1.706,0,0,1,1.726-1.9,2.129,2.129,0,0,1,2.081,1.9Z" transform="translate(-180.111 -119.937)" fill="#fff"/>
      <path id="Path_66052" data-name="Path 66052" d="M231.522,143.632a.274.274,0,0,1-.274.3.335.335,0,0,1-.331-.3.27.27,0,0,1,.274-.3A.335.335,0,0,1,231.522,143.632Z" transform="translate(-181.372 -121.656)" fill="#263238"/>
      <path id="Path_66053" data-name="Path 66053" d="M235.1,143.632a.274.274,0,0,1-.278.3.343.343,0,0,1-.331-.3.27.27,0,0,1,.278-.3A.335.335,0,0,1,235.1,143.632Z" transform="translate(-183.503 -121.656)" fill="#263238"/>
      <path id="Path_66054" data-name="Path 66054" d="M232.113,147h0a1.613,1.613,0,0,1-1.077-.423.149.149,0,0,1,0-.21.145.145,0,0,1,.21,0,1.31,1.31,0,0,0,.875.347h0a1.073,1.073,0,0,0,.806-.339.15.15,0,0,1,.218.206A1.363,1.363,0,0,1,232.113,147Z" transform="translate(-181.419 -123.44)" fill="#263238"/>
      <path id="Path_66055" data-name="Path 66055" d="M205.959,128.288a1.673,1.673,0,0,1-1.694,1.9,2.181,2.181,0,0,1-2.113-1.9,1.653,1.653,0,0,1,1.677-1.9,2.2,2.2,0,0,1,2.129,1.9Z" transform="translate(-164.196 -111.546)" fill="#fff"/>
      <path id="Path_66056" data-name="Path 66056" d="M204.84,129.552a.266.266,0,0,1-.266.3.351.351,0,0,1-.339-.3.262.262,0,0,1,.266-.3A.347.347,0,0,1,204.84,129.552Z" transform="translate(-165.449 -113.254)" fill="#263238"/>
      <path id="Path_66057" data-name="Path 66057" d="M208.405,129.552a.266.266,0,0,1-.27.3.355.355,0,0,1-.339-.3.266.266,0,0,1,.27-.3A.351.351,0,0,1,208.405,129.552Z" transform="translate(-167.574 -113.254)" fill="#263238"/>
      <path id="Path_66058" data-name="Path 66058" d="M206.427,132.552H204.54a.153.153,0,0,1,0-.3h1.887a.153.153,0,0,1,0,.3Z" transform="translate(-165.555 -115.044)" fill="#263238"/>
      <path id="Path_66059" data-name="Path 66059" d="M182.22,142.349a1.718,1.718,0,0,1-1.742,1.9,2.117,2.117,0,0,1-2.065-1.9,1.706,1.706,0,0,1,1.726-1.9A2.133,2.133,0,0,1,182.22,142.349Z" transform="translate(-150.034 -119.937)" fill="#fff"/>
      <path id="Path_66060" data-name="Path 66060" d="M181.1,143.632a.274.274,0,0,1-.274.3.335.335,0,0,1-.331-.3.27.27,0,0,1,.274-.3A.335.335,0,0,1,181.1,143.632Z" transform="translate(-151.283 -121.656)" fill="#263238"/>
      <path id="Path_66061" data-name="Path 66061" d="M184.682,143.632a.27.27,0,0,1-.274.3.343.343,0,0,1-.331-.3.27.27,0,0,1,.274-.3A.331.331,0,0,1,184.682,143.632Z" transform="translate(-153.419 -121.656)" fill="#263238"/>
      <path id="Path_66062" data-name="Path 66062" d="M180.787,146.985a.141.141,0,0,1-.1-.04.149.149,0,0,1,0-.21,1.383,1.383,0,0,1,1.02-.436,1.613,1.613,0,0,1,1.077.427.145.145,0,0,1,0,.21.157.157,0,0,1-.214,0,1.29,1.29,0,0,0-.879-.347,1.081,1.081,0,0,0-.806.335A.157.157,0,0,1,180.787,146.985Z" transform="translate(-151.371 -123.429)" fill="#263238"/>
      <path id="Path_66063" data-name="Path 66063" d="M194.392,98.04a8.143,8.143,0,0,0-7.359-4.4h-6.452a2.516,2.516,0,0,1-2.238-1.169,6.183,6.183,0,0,0-5.48-2.887,5.429,5.429,0,0,0-5.145,2.887,2.208,2.208,0,0,1-2.1,1.169h-6.452a7.093,7.093,0,0,0-6.855,4.4.653.653,0,0,0-.04.29.806.806,0,0,0,.806.766h40.678a.722.722,0,0,0,.641-1.056Zm-21.266-3.673a1.927,1.927,0,0,1-1.883-1.794,1.677,1.677,0,0,1,1.694-1.794,1.923,1.923,0,0,1,1.9,1.794,1.677,1.677,0,0,1-1.71,1.794Z" transform="translate(-134.435 -89.58)" fill="#263238"/>
    </g>
    <g id="freepik--Character--inject-6" transform="translate(145.539 98.975)">
      <path id="Path_66064" data-name="Path 66064" d="M359,408.055a1.29,1.29,0,0,1-.9-.222.278.278,0,0,1-.028-.306.3.3,0,0,1,.206-.165c.476-.133,1.577.456,1.613.484a.069.069,0,0,1,.04.073.06.06,0,0,1-.048.056A5.2,5.2,0,0,1,359,408.055Zm-.532-.573a.448.448,0,0,0-.133,0,.181.181,0,0,0-.129.1.194.194,0,0,0,0,.157c.161.19.911.194,1.452.117A3.489,3.489,0,0,0,358.472,407.482Z" transform="translate(-325.725 -288.605)" fill="#00b4bd"/>
      <path id="Path_66065" data-name="Path 66065" d="M360.889,406.932h-.028c-.375-.161-1.157-.806-1.141-1.137,0-.081.048-.177.242-.2a.573.573,0,0,1,.4.121,2.278,2.278,0,0,1,.589,1.141.072.072,0,0,1,0,.065.069.069,0,0,1-.064.008Zm-.859-1.21h-.04c-.125,0-.129.06-.129.077,0,.2.528.706.919.923a1.879,1.879,0,0,0-.5-.911.4.4,0,0,0-.254-.081Z" transform="translate(-326.723 -287.563)" fill="#00b4bd"/>
      <path id="Path_66066" data-name="Path 66066" d="M364.724,398.583H361.76l-1.06-6.863h2.964Z" transform="translate(-327.308 -279.283)" fill="#ffc3bd"/>
      <path id="Path_66067" data-name="Path 66067" d="M355.459,407.89h3.226a.3.3,0,0,1,.274.2l.879,2.633a.4.4,0,0,1-.367.524c-1.169,0-2.863-.085-4.331-.085-1.714,0-1.56.093-3.573.093-1.21,0-1.69-1.23-1.21-1.343a9.213,9.213,0,0,0,4.387-1.794A1.246,1.246,0,0,1,355.459,407.89Z" transform="translate(-321.027 -288.933)" fill="#263238"/>
      <path id="Path_66068" data-name="Path 66068" d="M360.7,391.73l.548,3.536h2.964l-.548-3.536Z" transform="translate(-327.308 -279.289)" opacity="0.2"/>
      <path id="Path_66069" data-name="Path 66069" d="M366.856,225.45l-2.016,2.036,3.089,1.093s1.21-1.661.359-2.8Z" transform="translate(-329.779 -180.058)" fill="#ffc3bd"/>
      <path id="Path_66070" data-name="Path 66070" d="M363.16,233.347l3.085.452.69-2.206-3.089-1.093Z" transform="translate(-328.776 -183.072)" fill="#ffc3bd"/>
      <path id="Path_66071" data-name="Path 66071" d="M365.685,163.27c.262.565.472,1.044.681,1.569s.4,1.028.6,1.544c.383,1.036.726,2.093,1.044,3.161a33.4,33.4,0,0,1,.806,3.286l.153.847.125.863c.044.286.073.585.1.879s.065.56.065.931v.988l-.024.456-.044.431c-.052.581-.129,1.125-.2,1.677-.161,1.089-.347,2.153-.552,3.226-.427,2.109-.9,4.169-1.46,6.246l-3.673-.726c.234-2.048.476-4.129.669-6.178.093-1.024.194-2.044.25-3.044.024-.492.052-.992.052-1.464v-1.008l-.028-.266a6.042,6.042,0,0,0-.089-.633c-.036-.226-.069-.452-.121-.681l-.149-.69-.173-.694c-.25-.927-.532-1.859-.855-2.79s-.681-1.859-1.061-2.778c-.185-.464-.379-.923-.581-1.375s-.4-.923-.6-1.315Z" transform="translate(-327.261 -142.951)" fill="#263238"/>
      <path id="Path_66072" data-name="Path 66072" d="M338.65,221.87s.492,22.678,1.823,31.71c1.387,9.4,6.452,39.634,6.452,39.634h5.016s-1.8-28.779-2.371-38.025c-.625-10.081-.488-33.319-.488-33.319Z" transform="translate(-314.15 -177.922)" fill="#00b4bd"/>
      <path id="Path_66073" data-name="Path 66073" d="M356.179,393.84c-.024,0,.516,2.085.516,2.085h6.1l-.044-1.859Z" transform="translate(-324.61 -280.548)" fill="#263238"/>
      <ellipse id="Ellipse_511" data-name="Ellipse 511" cx="0.456" cy="0.298" rx="0.456" ry="0.298" transform="matrix(0.061, -0.998, 0.998, 0.061, 22.747, 7.604)" fill="#263238"/>
      <path id="Path_66074" data-name="Path 66074" d="M333.654,131.78a9.355,9.355,0,0,1-1.274,2.145,1.419,1.419,0,0,0,1.19.226Z" transform="translate(-310.408 -124.159)" fill="#ed847e"/>
      <path id="Path_66075" data-name="Path 66075" d="M336.223,126.368a.173.173,0,0,1-.089-.024,1.137,1.137,0,0,0-1.036-.194.145.145,0,0,1-.19-.085.149.149,0,0,1,.093-.19,1.432,1.432,0,0,1,1.315.226.149.149,0,0,1,.028.206A.153.153,0,0,1,336.223,126.368Z" transform="translate(-311.912 -120.594)" fill="#263238"/>
      <path id="Path_66076" data-name="Path 66076" d="M344.972,137.52c-.5,2.169-1.065,6.141.4,7.585,0,0-.669,2.2-4.7,2.2-4.436,0-2.036-2.2-2.036-2.2,2.419-.577,2.44-2.367,2.077-4.052Z" transform="translate(-313.758 -127.584)" fill="#ffc3bd"/>
      <path id="Path_66077" data-name="Path 66077" d="M345.39,154.956c.435-.883.915-1.9,0-2.214-1-.351-6.528-.706-8.468-.052a2.016,2.016,0,0,0-1.456,2.452Z" transform="translate(-312.212 -136.42)" fill="#00b4bd"/>
      <path id="Path_66078" data-name="Path 66078" d="M365.191,157.914c2.552,1.177,3.851,10.1,3.851,10.1l-5.141,1.613a52.217,52.217,0,0,1-2.23-7.258C360.881,158.648,362.578,156.713,365.191,157.914Z" transform="translate(-327.772 -139.543)" fill="#263238"/>
      <path id="Path_66079" data-name="Path 66079" d="M285.664,189.87l-2.371-2.04-2.133,3.1a4.89,4.89,0,0,0,4.032.907Z" transform="translate(-279.841 -157.608)" fill="#ffc3bd"/>
      <path id="Path_66080" data-name="Path 66080" d="M278.217,185.38l-.327,3.069,1.319,1.024,2.133-3.1Z" transform="translate(-277.89 -156.146)" fill="#ffc3bd"/>
      <path id="Path_66081" data-name="Path 66081" d="M343.443,122.625c-.3,3.081-.319,4.9-1.931,6.476a4.032,4.032,0,0,1-6.8-2.109c-.565-2.766,0-7.339,3.077-8.565a4.069,4.069,0,0,1,5.653,4.2Z" transform="translate(-311.684 -115.992)" fill="#ffc3bd"/>
      <path id="Path_66082" data-name="Path 66082" d="M337.939,120.5c-.27-2.129-.226-2.936.911-3.407-1.181-.234-2.206-.266-2.694-.956s-.6-2.452,1.766-3.258c-.218.4.472,1.242,2.653.484s5.359-.839,5.645,1.379c1.153-.4,3.085,3.157.806,5.758-1.9,2.177-3.165,3.682-3.54,4.839a.4.4,0,0,1-.552.242,5,5,0,0,0-2.823.117.4.4,0,0,1-.46-.206A18.828,18.828,0,0,1,337.939,120.5Z" transform="translate(-312.491 -112.88)" fill="#263238"/>
      <path id="Path_66083" data-name="Path 66083" d="M360.48,117.133a2,2,0,0,1,2.73-.339,8.129,8.129,0,0,0-2.73.339Z" transform="translate(-327.177 -115)" fill="#263238"/>
      <path id="Path_66084" data-name="Path 66084" d="M360.86,115.427a1.547,1.547,0,0,0,.286-2.327A5.859,5.859,0,0,1,360.86,115.427Z" transform="translate(-327.404 -113.011)" fill="#263238"/>
      <path id="Path_66085" data-name="Path 66085" d="M341.051,130.022a3.689,3.689,0,0,1-1.081,2c-.746.706-1.391.206-1.411-.7-.02-.806.343-2.169,1.21-2.532S341.2,129.111,341.051,130.022Z" transform="translate(-314.095 -122.312)" fill="#ffc3bd"/>
      <path id="Path_66086" data-name="Path 66086" d="M339.68,253.12c.29,6.766.746,14.621,1.407,19.109.254,1.71.625,4.1,1.069,6.883C343.938,269.386,345,256.854,339.68,253.12Z" transform="translate(-314.764 -196.571)" opacity="0.3"/>
      <path id="Path_66087" data-name="Path 66087" d="M332.824,408.055c-.379,0-.746-.052-.863-.222a.274.274,0,0,1,0-.306.4.4,0,0,1,.23-.165c.5-.133,1.512.456,1.556.484a.061.061,0,0,1,.028.073.073.073,0,0,1-.056.056,5.417,5.417,0,0,1-.9.081Zm-.448-.573a.475.475,0,0,0-.137,0,.214.214,0,0,0-.141.1c-.052.089-.036.133-.02.157.133.19.879.194,1.436.117a3.069,3.069,0,0,0-1.137-.371Z" transform="translate(-310.13 -288.605)" fill="#00b4bd"/>
      <path id="Path_66088" data-name="Path 66088" d="M334.913,406.929h-.028c-.351-.161-1.04-.806-.972-1.137,0-.081.073-.177.266-.2a.52.52,0,0,1,.4.121,1.871,1.871,0,0,1,.4,1.141.085.085,0,0,1-.032.065A.077.077,0,0,1,334.913,406.929Zm-.681-1.21h-.04c-.129,0-.137.06-.141.077-.04.2.423.706.782.923a1.613,1.613,0,0,0-.359-.911.371.371,0,0,0-.242-.081Z" transform="translate(-311.32 -287.56)" fill="#00b4bd"/>
      <path id="Path_66089" data-name="Path 66089" d="M340.016,398.583h-2.96L337,391.72h2.964Z" transform="translate(-313.165 -279.283)" fill="#ffc3bd"/>
      <path id="Path_66090" data-name="Path 66090" d="M326.484,407.89h3.226a.242.242,0,0,1,.242.2l.5,2.633a.448.448,0,0,1-.448.524c-1.165,0-2.851-.085-4.315-.085-1.718,0-3.2.093-5.214.093-1.21,0-1.508-1.23-1-1.343,2.335-.5,4.23-.56,6.274-1.794a1.44,1.44,0,0,1,.734-.23Z" transform="translate(-302.564 -288.933)" fill="#263238"/>
      <path id="Path_66091" data-name="Path 66091" d="M337.01,391.73l.024,3.536H340l-.024-3.536Z" transform="translate(-313.171 -279.289)" opacity="0.2"/>
      <path id="Path_66092" data-name="Path 66092" d="M323.785,221.87s-1.21,22.15-1.185,31.182c0,9.4,4.758,40.162,4.758,40.162h5.016s-1.306-30.218-.742-39.436c.6-10.081,3.512-31.9,3.512-31.9Z" transform="translate(-304.571 -177.922)" fill="#00b4bd"/>
      <path id="Path_66093" data-name="Path 66093" d="M332.177,393.84c-.024,0,.206,2.085.206,2.085h6.1l.234-1.859Z" transform="translate(-310.286 -280.548)" fill="#263238"/>
      <path id="Path_66094" data-name="Path 66094" d="M323.181,157.009s-5.048,12.754-2.851,34.8h18.436c.194-2.419-1.734-23.492,1.016-34.952a40.872,40.872,0,0,0-5.282-.669,58.588,58.588,0,0,0-6.734,0,30.18,30.18,0,0,0-4.585.823Z" transform="translate(-302.886 -138.666)" fill="#263238"/>
      <path id="Path_66095" data-name="Path 66095" d="M320.8,180.143c-.274,2.016-.5,4.319-.645,6.855,3.581-3.29,4.807-11.488,4.807-11.488Z" transform="translate(-303.109 -150.256)" opacity="0.2"/>
      <path id="Path_66096" data-name="Path 66096" d="M306.028,170.625c-.726,1.887-1.46,3.706-2.266,5.532s-1.641,3.629-2.581,5.436l-.367.673-.185.339c-.077.137-.069.145-.278.5a3.944,3.944,0,0,1-1.456,1.355,4.339,4.339,0,0,1-1.577.476,6.637,6.637,0,0,1-2.258-.181,12.5,12.5,0,0,1-1.71-.556,22.236,22.236,0,0,1-2.891-1.452c-.456-.262-.891-.544-1.323-.806s-.823-.6-1.286-.919l2.177-3.339a28.331,28.331,0,0,0,4.9,2.125,7.4,7.4,0,0,0,1.1.25,1.548,1.548,0,0,0,.645,0c.024,0-.052-.024-.185.044a1.084,1.084,0,0,0-.4.355c-.085.141.024-.069.06-.149l.145-.319.29-.633c.766-1.71,1.476-3.48,2.165-5.242s1.359-3.6,1.976-5.379Z" transform="translate(-283.834 -146.21)" fill="#263238"/>
      <path id="Path_66097" data-name="Path 66097" d="M323.554,159.427c.944,2.637-5.734,13.254-5.734,13.254l-3.96-3.923s1.012-3.335,2.347-7.351C317.521,157.46,322.654,156.907,323.554,159.427Z" transform="translate(-299.356 -139.746)" fill="#263238"/>
    </g>
  </g>
</svg>
