<svg xmlns="http://www.w3.org/2000/svg" width="16.801" height="12.32" viewBox="0 0 16.801 12.32">
  <g id="university" transform="translate(-1.006 -5.003)">
    <path id="Path_66121" data-name="Path 66121" d="M11.162,20.735a1.68,1.68,0,0,1-.751-.179L5,17.85v1.07a1.68,1.68,0,0,0,.93,1.507l4.98,2.487a.56.56,0,0,0,.5,0l4.98-2.487a1.68,1.68,0,0,0,.93-1.507V17.85l-5.411,2.705A1.68,1.68,0,0,1,11.162,20.735Z" transform="translate(-1.757 -5.651)" fill="#00b4bd"/>
    <path id="Path_66122" data-name="Path 66122" d="M17.807,9.482a.56.56,0,0,0-.308-.5L9.657,5.063a.56.56,0,0,0-.5,0L1.311,8.984a.56.56,0,0,0,0,1L9.153,13.9a.56.56,0,0,0,.5,0l7.03-3.512v2.453a.56.56,0,0,0,1.12,0Z" transform="translate(0 0)" fill="#00b4bd"/>
  </g>
</svg>
